# Made in Blockbench 4.10.4
mtllib aluminumrim.mtl

o tube
v 0.046875000000000014 0.06371411767629669 0.3203125
v 1.4147376087580255e-17 0.0637141176762967 0.3203125
v 0.125 0.04631431659395349 0.23283779286360196
v 0.07812500000000001 0.046314316593953506 0.23283779286360196
v 0.04687500000000004 0.18144245618258892 0.2715478255150431
v 4.028831849969026e-17 0.18144245618258892 0.2715478255150431
v 0.12500000000000003 0.13189201492075645 0.19739034957996682
v 0.07812500000000003 0.13189201492075645 0.19739034957996682
v 0.04687500000000006 0.2715478255150431 0.18144245618258895
v 6.029572963473908e-17 0.2715478255150431 0.18144245618258895
v 0.12500000000000006 0.19739034957996685 0.13189201492075647
v 0.07812500000000004 0.19739034957996685 0.13189201492075647
v 7.112366251504909e-17 0.3203125 0.06371411767629673
v 0.12500000000000006 0.23283779286360193 0.04631431659395351
v 0.07812500000000006 0.23283779286360193 0.04631431659395351
v 7.112366251504909e-17 0.3203125 -0.06371411767629667
v 0.07812500000000006 0.23283779286360193 -0.046314316593953485
v 0.04687500000000006 0.27154782551504314 -0.18144245618258883
v 6.029572963473909e-17 0.27154782551504314 -0.18144245618258883
v 0.12500000000000006 0.19739034957996685 -0.13189201492075642
v 0.07812500000000004 0.19739034957996685 -0.13189201492075642
v 0.04687500000000004 0.18144245618258892 -0.2715478255150431
v 4.028831849969026e-17 0.18144245618258892 -0.2715478255150431
v 0.12500000000000003 0.13189201492075645 -0.19739034957996685
v 0.07812500000000003 0.13189201492075645 -0.19739034957996685
v 0.046875000000000014 0.0637141176762968 -0.3203125
v 1.414737608758028e-17 0.06371411767629681 -0.3203125
v 0.125 0.04631431659395356 -0.23283779286360196
v 0.07812500000000001 0.046314316593953575 -0.23283779286360196
v 0.046874999999999986 -0.06371411767629674 -0.3203125
v -1.414737608758026e-17 -0.06371411767629673 -0.3203125
v 0.12499999999999999 -0.04631431659395353 -0.23283779286360196
v 0.07812499999999999 -0.04631431659395352 -0.23283779286360196
v 0.04687499999999996 -0.1814424561825888 -0.27154782551504314
v -4.0288318499690236e-17 -0.1814424561825888 -0.27154782551504314
v 0.12499999999999997 -0.13189201492075645 -0.19739034957996685
v 0.07812499999999997 -0.13189201492075645 -0.19739034957996685
v 0.04687499999999994 -0.2715478255150431 -0.18144245618258892
v -6.029572963473908e-17 -0.2715478255150431 -0.18144245618258892
v 0.12499999999999996 -0.1973903495799668 -0.13189201492075647
v 0.07812499999999996 -0.1973903495799668 -0.13189201492075647
v 0.04687499999999993 -0.32031249999999994 -0.06371411767629684
v -7.112366251504908e-17 -0.32031249999999994 -0.06371411767629684
v 0.12499999999999994 -0.23283779286360187 -0.04631431659395358
v 0.07812499999999994 -0.23283779286360187 -0.04631431659395358
v 0.04687499999999993 -0.3203125 0.06371411767629671
v -7.112366251504909e-17 -0.3203125 0.06371411767629671
v 0.12499999999999994 -0.23283779286360198 0.04631431659395351
v 0.07812499999999994 -0.23283779286360198 0.04631431659395351
v 0.04687499999999994 -0.27154782551504314 0.1814424561825888
v -6.029572963473909e-17 -0.27154782551504314 0.1814424561825888
v 0.12499999999999996 -0.19739034957996685 0.13189201492075636
v 0.07812499999999996 -0.19739034957996685 0.13189201492075636
v 0.04687499999999996 -0.18144245618258892 0.2715478255150431
v -4.028831849969026e-17 -0.18144245618258892 0.2715478255150431
v 0.12499999999999997 -0.1318920149207565 0.19739034957996682
v 0.07812499999999997 -0.1318920149207565 0.19739034957996682
v 0.046874999999999986 -0.06371411767629688 0.32031249999999994
v -1.414737608758029e-17 -0.06371411767629687 0.32031249999999994
v 0.12499999999999999 -0.04631431659395362 0.2328377928636019
v 0.07812499999999999 -0.0463143165939536 0.2328377928636019
v 0.04687500000000007 0.3203125 0.06371411767629673
v 0.04687500000000007 0.3203125 -0.06371411767629667
v 0.12500000000000006 0.23283779286360193 -0.046314316593953485
vt 0.12890625 0.5390625
vt 0.19261875 0.5390625
vt 0.19261875 0.5625
vt 0.12890625 0.5625
vt 0.047437499999999994 0.4375
vt 0.001125000000000001 0.4375
vt 0.001125000000000001 0.4140625
vt 0.047437499999999994 0.4140625
vt 0.8899556675370863 0.21266048494356915
vt 0.8722409656009389 0.25544933410697057
vt 0.909300833981725 0.28022455473788677
vt 0.9336707629100853 0.2213603854847408
vt 0.9336707629100853 0.2213603854847408
vt 0.909300833981725 0.28022455473788677
vt 0.8722409656009389 0.25544933410697057
vt 0.8899556675370863 0.21266048494356915
vt 0.19261875 0.5390625
vt 0.25633125 0.5390625
vt 0.25633125 0.5625
vt 0.19261875 0.5625
vt 0.15625 0.875
vt 0.125 0.875
vt 0.125 0.84375
vt 0.15625 0.84375
vt 0.8722409656009389 0.25544933410697057
vt 0.8395084645142497 0.28819850143657577
vt 0.8642710768903918 0.3252772394041139
vt 0.909300833981725 0.28022455473788677
vt 0.909300833981725 0.28022455473788677
vt 0.8642710768903918 0.3252772394041139
vt 0.8395084645142494 0.28819850143657577
vt 0.8722409656009389 0.25544933410697057
vt 0.0014812499999999895 0.6015625
vt 0.06519375 0.6015625
vt 0.06519375 0.625
vt 0.0014812499999999895 0.625
vt 0.186375 0.5
vt 0.14006249999999998 0.5
vt 0.14006249999999998 0.4765625
vt 0.186375 0.4765625
vt 0.8642710768903918 0.3252772394041139
vt 0.8054368639574763 0.3496595766465924
vt 0.7967413908466054 0.30592222307839334
vt 0.8395084645142494 0.28819850143657577
vt 0.06519375 0.6015625
vt 0.12890625 0.6015625
vt 0.12890625 0.625
vt 0.06519375 0.625
vt 0.14006249999999998 0.5
vt 0.09375 0.5
vt 0.09375 0.4765625
vt 0.14006249999999998 0.4765625
vt 0.8054368639574763 0.3496595766465924
vt 0.7417551707685466 0.3496595766465924
vt 0.7504506438794174 0.30592222307839334
vt 0.7967413908466054 0.30592222307839334
vt 0.12890625 0.6015625
vt 0.19261875 0.6015625
vt 0.19261875 0.625
vt 0.12890625 0.625
vt 0.09375 0.5
vt 0.04743750000000001 0.5
vt 0.04743750000000001 0.4765625
vt 0.09375 0.4765625
vt 0.7417551707685466 0.3496595766465924
vt 0.6829209578356312 0.3252772394041139
vt 0.7076835702117734 0.28819850143657577
vt 0.7504506438794174 0.30592222307839334
vt 0.19261875 0.6015625
vt 0.25633125 0.6015625
vt 0.25633125 0.625
vt 0.19261875 0.625
vt 0.04743750000000001 0.5
vt 0.001125000000000001 0.5
vt 0.001125000000000001 0.4765625
vt 0.04743750000000001 0.4765625
vt 0.7076835702117734 0.28819850143657577
vt 0.674951069125084 0.25544933410697057
vt 0.6378912007442978 0.28022455473788677
vt 0.6829209578356312 0.3252772394041139
vt 0.6829209578356312 0.3252772394041139
vt 0.6378912007442978 0.28022455473788677
vt 0.674951069125084 0.25544933410697057
vt 0.7076835702117734 0.28819850143657577
vt 0.37648125 0.9765625
vt 0.44019375 0.9765625
vt 0.44019375 1
vt 0.37648125 1
vt 0.13978125 0.375
vt 0.09346875 0.375
vt 0.09346875 0.3515625
vt 0.13978125 0.3515625
vt 0.674951069125084 0.25544933410697057
vt 0.6572363671889365 0.21266048494356915
vt 0.6135212718159377 0.2213603854847408
vt 0.6378912007442978 0.28022455473788677
vt 0.6378912007442978 0.28022455473788677
vt 0.6135212718159377 0.2213603854847408
vt 0.6572363671889365 0.21266048494356915
vt 0.674951069125084 0.25544933410697057
vt 0.44019375 0.9765625
vt 0.50390625 0.9765625
vt 0.50390625 1
vt 0.44019375 1
vt 0.09346875 0.375
vt 0.04715625 0.375
vt 0.04715625 0.3515625
vt 0.09346875 0.3515625
vt 0.6572363671889365 0.21266048494356915
vt 0.6572363671889365 0.1663461683496157
vt 0.6135212718159377 0.15764626780844404
vt 0.6135212718159377 0.2213603854847408
vt 0.6135212718159377 0.2213603854847408
vt 0.6135212718159377 0.15764626780844404
vt 0.6572363671889365 0.1663461683496157
vt 0.6572363671889365 0.21266048494356915
vt 0.50390625 0.9765625
vt 0.5676187500000001 0.9765625
vt 0.5676187500000001 1
vt 0.50390625 1
vt 0.04715625 0.375
vt 0.0008437500000000042 0.375
vt 0.0008437500000000042 0.3515625
vt 0.04715625 0.3515625
vt 0.6572363671889365 0.1663461683496157
vt 0.674951069125084 0.12355731918621427
vt 0.6378912007442978 0.09878209855529807
vt 0.6135212718159377 0.15764626780844404
vt 0.6135212718159377 0.15764626780844404
vt 0.6378912007442978 0.09878209855529807
vt 0.674951069125084 0.12355731918621427
vt 0.6572363671889365 0.1663461683496157
vt 0.5676187500000001 0.9765625
vt 0.63133125 0.9765625
vt 0.63133125 1
vt 0.5676187500000001 1
vt 0.592625 0.5
vt 0.5463125 0.5
vt 0.5463125 0.4765625
vt 0.592625 0.4765625
vt 0.674951069125084 0.12355731918621427
vt 0.7076835702117734 0.09080815185660907
vt 0.6829209578356312 0.05372941388907071
vt 0.6378912007442978 0.09878209855529807
vt 0.6378912007442978 0.09878209855529807
vt 0.6829209578356312 0.05372941388907071
vt 0.7076835702117734 0.09080815185660907
vt 0.674951069125084 0.12355731918621427
vt 0.40773125 0.6953125
vt 0.47144375 0.6953125
vt 0.47144375 0.71875
vt 0.40773125 0.71875
vt 0.5463125 0.5
vt 0.5 0.5
vt 0.5 0.4765625
vt 0.5463125 0.4765625
vt 0.7076835702117734 0.09080815185660907
vt 0.7504506438794174 0.0730844302147915
vt 0.7417551707685466 0.029347076646592418
vt 0.6829209578356312 0.05372941388907071
vt 0.6829209578356312 0.05372941388907071
vt 0.7417551707685466 0.029347076646592418
vt 0.7504506438794174 0.0730844302147915
vt 0.7076835702117734 0.09080815185660907
vt 0.47144375 0.6953125
vt 0.53515625 0.6953125
vt 0.53515625 0.71875
vt 0.47144375 0.71875
vt 0.5 0.5
vt 0.4536875 0.5
vt 0.4536875 0.4765625
vt 0.5 0.4765625
vt 0.7504506438794174 0.0730844302147915
vt 0.7967413908466054 0.0730844302147915
vt 0.8054368639574763 0.029347076646592418
vt 0.7417551707685466 0.029347076646592418
vt 0.7417551707685466 0.029347076646592418
vt 0.8054368639574763 0.029347076646592418
vt 0.7967413908466054 0.0730844302147915
vt 0.7504506438794174 0.0730844302147915
vt 0.53515625 0.6953125
vt 0.5988687500000001 0.6953125
vt 0.5988687500000001 0.71875
vt 0.53515625 0.71875
vt 0.4536875 0.5
vt 0.407375 0.5
vt 0.407375 0.4765625
vt 0.4536875 0.4765625
vt 0.7967413908466054 0.0730844302147915
vt 0.8395084645142494 0.09080815185660884
vt 0.8642710768903916 0.05372941388907071
vt 0.8054368639574763 0.029347076646592418
vt 0.8054368639574763 0.029347076646592418
vt 0.8642710768903916 0.05372941388907071
vt 0.8395084645142494 0.09080815185660907
vt 0.7967413908466054 0.0730844302147915
vt 0.5988687500000001 0.6953125
vt 0.66258125 0.6953125
vt 0.66258125 0.71875
vt 0.5988687500000001 0.71875
vt 0.186375 0.4375
vt 0.14006249999999998 0.4375
vt 0.14006249999999998 0.4140625
vt 0.186375 0.4140625
vt 0.8395084645142494 0.09080815185660884
vt 0.8722409656009389 0.12355731918621404
vt 0.909300833981725 0.09878209855529785
vt 0.8642710768903916 0.05372941388907071
vt 0.8642710768903916 0.05372941388907071
vt 0.909300833981725 0.09878209855529785
vt 0.8722409656009389 0.12355731918621427
vt 0.8395084645142494 0.09080815185660907
vt 0.0014812499999999895 0.5390625
vt 0.06519375 0.5390625
vt 0.06519375 0.5625
vt 0.0014812499999999895 0.5625
vt 0.14006249999999998 0.4375
vt 0.09375 0.4375
vt 0.09375 0.4140625
vt 0.14006249999999998 0.4140625
vt 0.8722409656009389 0.12355731918621404
vt 0.8899556675370863 0.16634616834961546
vt 0.9336707629100851 0.15764626780844404
vt 0.909300833981725 0.09878209855529785
vt 0.909300833981725 0.09878209855529785
vt 0.9336707629100851 0.15764626780844404
vt 0.8899556675370863 0.16634616834961546
vt 0.8722409656009389 0.12355731918621427
vt 0.06519375 0.5390625
vt 0.12890625 0.5390625
vt 0.12890625 0.5625
vt 0.06519375 0.5625
vt 0.09375 0.4375
vt 0.047437499999999994 0.4375
vt 0.047437499999999994 0.4140625
vt 0.09375 0.4140625
vt 0.8899556675370863 0.16634616834961546
vt 0.8899556675370863 0.21266048494356915
vt 0.9336707629100853 0.2213603854847408
vt 0.9336707629100851 0.15764626780844404
vt 0.9336707629100851 0.15764626780844404
vt 0.9336707629100853 0.2213603854847408
vt 0.8899556675370863 0.21266048494356915
vt 0.8899556675370863 0.16634616834961546
vt 0.8395084645142497 0.28819850143657577
vt 0.7967413908466054 0.30592222307839334
vt 0.8054368639574763 0.3496595766465924
vt 0.8642710768903918 0.3252772394041139
vt 0.7504506438794174 0.30592222307839334
vt 0.7076835702117734 0.28819850143657577
vt 0.6829209578356312 0.3252772394041139
vt 0.7417551707685466 0.3496595766465924
vt 0.7967413908466054 0.30592222307839334
vt 0.7504506438794174 0.30592222307839334
vt 0.7417551707685466 0.3496595766465924
vt 0.8054368639574763 0.3496595766465924
vn 8.49727915508613e-17 0.3826834323650898 0.9238795325112867
vn -8.497279155086136e-17 -0.38268343236509006 -0.9238795325112866
vn 0.7458419937147777 0.25491419846916014 0.6154173151857131
vn -0.7458419937147777 -0.25491419846915997 -0.6154173151857132
vn 1.570092458683775e-16 0.7071067811865475 0.7071067811865477
vn -1.5700924586837744e-16 -0.7071067811865472 -0.7071067811865478
vn 0.7458419937147776 0.47102002102435386 0.4710200210243544
vn -0.7458419937147776 -0.471020021024354 -0.4710200210243543
vn 2.0514246579479128e-16 0.9238795325112867 0.3826834323650898
vn -2.051424657947913e-16 -0.9238795325112868 -0.38268343236508956
vn -0.7458419937147776 -0.6154173151857132 -0.25491419846916014
vn 2.220446049250313e-16 1 0
vn -2.220446049250313e-16 -1 0
vn -0.7458419937147776 -0.6661229018819018 0
vn 2.051424657947913e-16 0.9238795325112868 -0.38268343236508956
vn -2.0514246579479133e-16 -0.923879532511287 0.3826834323650898
vn -0.7458419937147776 -0.6154173151857133 0.25491419846915997
vn 1.5700924586837752e-16 0.7071067811865476 -0.7071067811865475
vn -1.5700924586837754e-16 -0.7071067811865477 0.7071067811865475
vn 0.7458419937147776 0.4710200210243541 -0.4710200210243541
vn -0.7458419937147776 -0.47102002102435414 0.47102002102435414
vn 8.497279155086137e-17 0.3826834323650901 -0.9238795325112867
vn -8.497279155086137e-17 -0.3826834323650901 0.9238795325112867
vn 0.7458419937147776 0.2549141984691602 -0.6154173151857133
vn -0.7458419937147776 -0.25491419846916014 0.6154173151857132
vn 0 0 -1
vn 0 0 1
vn 0.7458419937147774 -1.6561019083089544e-16 -0.6661229018819019
vn -0.7458419937147774 1.6561019083089544e-16 0.6661229018819019
vn -8.49727915508613e-17 -0.3826834323650898 -0.9238795325112868
vn 8.497279155086135e-17 0.38268343236509 0.9238795325112868
vn 0.7458419937147774 -0.2549141984691604 -0.6154173151857132
vn -0.7458419937147774 0.25491419846916036 0.6154173151857133
vn -1.5700924586837747e-16 -0.7071067811865474 -0.7071067811865478
vn 1.5700924586837754e-16 0.7071067811865477 0.7071067811865474
vn 0.7458419937147776 -0.47102002102435414 -0.47102002102435375
vn -0.7458419937147776 0.4710200210243541 0.4710200210243542
vn -2.051424657947913e-16 -0.9238795325112868 -0.3826834323650898
vn 2.0514246579479128e-16 0.9238795325112867 0.3826834323650898
vn 0.7458419937147776 -0.6154173151857132 -0.2549141984691601
vn -0.7458419937147777 0.6154173151857132 0.2549141984691601
vn -2.220446049250313e-16 -1 -4.356267751621815e-16
vn 2.220446049250313e-16 1 1.1985743354033415e-15
vn 0.7458419937147773 -0.6661229018819022 -7.983978144200461e-16
vn -0.7458419937147773 0.666122901881902 2.9018097160848722e-16
vn -2.051424657947913e-16 -0.9238795325112868 0.3826834323650898
vn 2.0514246579479123e-16 0.9238795325112865 -0.3826834323650905
vn 0.7458419937147777 -0.615417315185713 0.2549141984691605
vn -0.7458419937147776 0.6154173151857132 -0.25491419846916
vn -1.5700924586837757e-16 -0.7071067811865478 0.7071067811865474
vn 1.5700924586837764e-16 0.7071067811865481 -0.707106781186547
vn 0.7458419937147773 -0.4710200210243547 0.47102002102435375
vn -0.7458419937147773 0.4710200210243544 -0.471020021024354
vn -8.497279155086131e-17 -0.38268343236508984 0.9238795325112867
vn 8.497279155086131e-17 0.38268343236508984 -0.9238795325112867
vn 0.7458419937147774 -0.2549141984691603 0.6154173151857132
vn -0.7458419937147774 0.2549141984691603 -0.6154173151857132
vn -9.672857518565203e-32 -4.356267751621815e-16 1
vn 1.3306848238895844e-31 5.992871677016707e-16 -1
vn 0.7458419937147773 -5.648090980409183e-16 0.666122901881902
vn -0.7458419937147774 4.557911624393827e-16 -0.6661229018819019
vn 0.7458419937147776 0.6154173151857133 0.25491419846916
vn 0.7458419937147776 0.6154173151857133 -0.25491419846916014
vn 0.7458419937147776 0.6661229018819019 0
usemtl m_fefbb154-b915-f4c9-4c40-00423ace2a90
f 1/1/1 5/2/1 6/3/1 2/4/1
f 4/5/2 8/6/2 7/7/2 3/8/2
f 3/9/3 7/10/3 5/11/3 1/12/3
f 2/13/4 6/14/4 8/15/4 4/16/4
f 5/17/5 9/18/5 10/19/5 6/20/5
f 8/21/6 12/22/6 11/23/6 7/24/6
f 7/25/7 11/26/7 9/27/7 5/28/7
f 6/29/8 10/30/8 12/31/8 8/32/8
f 9/33/9 62/34/9 13/35/9 10/36/9
f 12/37/10 15/38/10 14/39/10 11/40/10
f 10/41/11 13/42/11 15/43/11 12/44/11
f 62/45/12 63/46/12 16/47/12 13/48/12
f 15/49/13 17/50/13 64/51/13 14/52/13
f 13/53/14 16/54/14 17/55/14 15/56/14
f 63/57/15 18/58/15 19/59/15 16/60/15
f 17/61/16 21/62/16 20/63/16 64/64/16
f 16/65/17 19/66/17 21/67/17 17/68/17
f 18/69/18 22/70/18 23/71/18 19/72/18
f 21/73/19 25/74/19 24/75/19 20/76/19
f 20/77/20 24/78/20 22/79/20 18/80/20
f 19/81/21 23/82/21 25/83/21 21/84/21
f 22/85/22 26/86/22 27/87/22 23/88/22
f 25/89/23 29/90/23 28/91/23 24/92/23
f 24/93/24 28/94/24 26/95/24 22/96/24
f 23/97/25 27/98/25 29/99/25 25/100/25
f 26/101/26 30/102/26 31/103/26 27/104/26
f 29/105/27 33/106/27 32/107/27 28/108/27
f 28/109/28 32/110/28 30/111/28 26/112/28
f 27/113/29 31/114/29 33/115/29 29/116/29
f 30/117/30 34/118/30 35/119/30 31/120/30
f 33/121/31 37/122/31 36/123/31 32/124/31
f 32/125/32 36/126/32 34/127/32 30/128/32
f 31/129/33 35/130/33 37/131/33 33/132/33
f 34/133/34 38/134/34 39/135/34 35/136/34
f 37/137/35 41/138/35 40/139/35 36/140/35
f 36/141/36 40/142/36 38/143/36 34/144/36
f 35/145/37 39/146/37 41/147/37 37/148/37
f 38/149/38 42/150/38 43/151/38 39/152/38
f 41/153/39 45/154/39 44/155/39 40/156/39
f 40/157/40 44/158/40 42/159/40 38/160/40
f 39/161/41 43/162/41 45/163/41 41/164/41
f 42/165/42 46/166/42 47/167/42 43/168/42
f 45/169/43 49/170/43 48/171/43 44/172/43
f 44/173/44 48/174/44 46/175/44 42/176/44
f 43/177/45 47/178/45 49/179/45 45/180/45
f 46/181/46 50/182/46 51/183/46 47/184/46
f 49/185/47 53/186/47 52/187/47 48/188/47
f 48/189/48 52/190/48 50/191/48 46/192/48
f 47/193/49 51/194/49 53/195/49 49/196/49
f 50/197/50 54/198/50 55/199/50 51/200/50
f 53/201/51 57/202/51 56/203/51 52/204/51
f 52/205/52 56/206/52 54/207/52 50/208/52
f 51/209/53 55/210/53 57/211/53 53/212/53
f 54/213/54 58/214/54 59/215/54 55/216/54
f 57/217/55 61/218/55 60/219/55 56/220/55
f 56/221/56 60/222/56 58/223/56 54/224/56
f 55/225/57 59/226/57 61/227/57 57/228/57
f 58/229/58 1/230/58 2/231/58 59/232/58
f 61/233/59 4/234/59 3/235/59 60/236/59
f 60/237/60 3/238/60 1/239/60 58/240/60
f 59/241/61 2/242/61 4/243/61 61/244/61
f 11/245/62 14/246/62 62/247/62 9/248/62
f 64/249/63 20/250/63 18/251/63 63/252/63
f 14/253/64 64/254/64 63/255/64 62/256/64