# Made in Blockbench 4.10.3
mtllib ball_hitch_gooseneck_unucompat.mtl

o cylinder
v 0 -0.1875 -3.469446951953614e-18
v 0 0.015625 -3.469446951953614e-18
v 0.032360434560398055 -0.1875 0.078125
v 0.032360434560398055 0.015625 0.078125
v 0.078125 -0.1875 0.032360434560398055
v 0.078125 0.015625 0.032360434560398055
v 0.078125 -0.1875 -0.032360434560398055
v 0.078125 0.015625 -0.032360434560398055
v 0.03236043456039806 -0.1875 -0.078125
v 0.03236043456039806 0.015625 -0.078125
v -0.03236043456039805 -0.1875 -0.078125
v -0.03236043456039805 0.015625 -0.078125
v -0.07812499999999999 -0.1875 -0.03236043456039811
v -0.07812499999999999 0.015625 -0.03236043456039811
v -0.078125 -0.1875 0.03236043456039807
v -0.078125 0.015625 0.03236043456039807
v -0.0323604345603981 -0.1875 0.07812499999999999
v -0.0323604345603981 0.015625 0.07812499999999999
vt 0.359375 0.40249431818181813
vt 0.3136125 0.4232954545454546
vt 0.28125 0.38778409090909094
vt 0.3125 0.125
vt 0.375 0.125
vt 0.375 0.2102272727272727
vt 0.3125 0.2102272727272727
vt 0.3136125 0.25284090909090906
vt 0.359375 0.2736420454545454
vt 0.28125 0.2883522727272727
vt 0.359375 0.37307386363636363
vt 0.359375 0.40249431818181813
vt 0.28125 0.38778409090909094
vt 0.4375 0.3522727272727273
vt 0.5 0.3522727272727273
vt 0.5 0.4375
vt 0.4375 0.4375
vt 0.359375 0.2736420454545454
vt 0.359375 0.3030625
vt 0.28125 0.2883522727272727
vt 0.3136125 0.3522727272727273
vt 0.359375 0.37307386363636363
vt 0.28125 0.38778409090909094
vt 0.1875 0.125
vt 0.25 0.125
vt 0.25 0.2102272727272727
vt 0.1875 0.2102272727272727
vt 0.359375 0.3030625
vt 0.3136125 0.32386363636363635
vt 0.28125 0.2883522727272727
vt 0.24888749999999998 0.3522727272727273
vt 0.3136125 0.3522727272727273
vt 0.28125 0.38778409090909094
vt 0.4375 0.23863636363636365
vt 0.5 0.23863636363636365
vt 0.5 0.32386363636363635
vt 0.4375 0.32386363636363635
vt 0.3136125 0.32386363636363635
vt 0.24888749999999998 0.32386363636363635
vt 0.28125 0.2883522727272727
vt 0.203125 0.37307386363636363
vt 0.24888749999999998 0.3522727272727273
vt 0.28125 0.38778409090909094
vt 0.4375 0.125
vt 0.5 0.125
vt 0.5 0.2102272727272727
vt 0.4375 0.2102272727272727
vt 0.24888749999999998 0.32386363636363635
vt 0.203125 0.3030625
vt 0.28125 0.2883522727272727
vt 0.203125 0.40249431818181813
vt 0.203125 0.37307386363636363
vt 0.28125 0.38778409090909094
vt 0.5625 0.3522727272727273
vt 0.625 0.3522727272727273
vt 0.625 0.4375
vt 0.5625 0.4375
vt 0.203125 0.3030625
vt 0.203125 0.2736420454545454
vt 0.28125 0.2883522727272727
vt 0.24888749999999998 0.4232954545454546
vt 0.203125 0.40249431818181813
vt 0.28125 0.38778409090909094
vt 0.6875 0.3522727272727273
vt 0.75 0.3522727272727273
vt 0.75 0.4375
vt 0.6875 0.4375
vt 0.203125 0.2736420454545454
vt 0.24888749999999998 0.25284090909090906
vt 0.28125 0.2883522727272727
vt 0.3136125 0.4232954545454546
vt 0.24888749999999998 0.4232954545454546
vt 0.28125 0.38778409090909094
vt 0.5625 0.23863636363636365
vt 0.625 0.23863636363636365
vt 0.625 0.32386363636363635
vt 0.5625 0.32386363636363635
vt 0.24888749999999998 0.25284090909090906
vt 0.3136125 0.25284090909090906
vt 0.28125 0.2883522727272727
vn 0 -1 0
vn 0.7071067811865476 0 0.7071067811865476
vn 0 1 0
vn 0 -1 0
vn 1 0 0
vn 0 1 0
vn 0 -1 0
vn 0.7071067811865476 0 -0.7071067811865475
vn 0 1 0
vn 0 -1 0
vn 0 0 -1
vn 0 1 0
vn 0 -1 0
vn -0.7071067811865472 0 -0.7071067811865479
vn 0 1 0
vn 0 -1 0
vn -1 0 -2.1442523866471429e-16
vn 0 1 0
vn 0 -1 0
vn -0.7071067811865477 0 0.7071067811865474
vn 0 1 0
vn 0 -1 0
vn -2.1442523866471433e-16 0 1
vn 0 1 0
usemtl m_27b0afad-128d-73a0-3b2c-34b7d48aa959
f 5/1/1 3/2/1 1/3/1
f 3/4/2 5/5/2 6/6/2 4/7/2
f 4/8/3 6/9/3 2/10/3
f 7/11/4 5/12/4 1/13/4
f 5/14/5 7/15/5 8/16/5 6/17/5
f 6/18/6 8/19/6 2/20/6
f 9/21/7 7/22/7 1/23/7
f 7/24/8 9/25/8 10/26/8 8/27/8
f 8/28/9 10/29/9 2/30/9
f 11/31/10 9/32/10 1/33/10
f 9/34/11 11/35/11 12/36/11 10/37/11
f 10/38/12 12/39/12 2/40/12
f 13/41/13 11/42/13 1/43/13
f 11/44/14 13/45/14 14/46/14 12/47/14
f 12/48/15 14/49/15 2/50/15
f 15/51/16 13/52/16 1/53/16
f 13/54/17 15/55/17 16/56/17 14/57/17
f 14/58/18 16/59/18 2/60/18
f 17/61/19 15/62/19 1/63/19
f 15/64/20 17/65/20 18/66/20 16/67/20
f 16/68/21 18/69/21 2/70/21
f 3/71/22 17/72/22 1/73/22
f 17/74/23 3/75/23 4/76/23 18/77/23
f 18/78/24 4/79/24 2/80/24
o cylinder
v 0 0.015625 -1.3877787807814458e-18
v 0 0.140625 -1.3877787807814458e-18
v 0.012944173824159223 0.015625 0.03125
v 0.012944173824159223 0.140625 0.03125
v 0.03125 0.015625 0.012944173824159223
v 0.03125 0.140625 0.012944173824159223
v 0.03125 0.015625 -0.012944173824159223
v 0.03125 0.140625 -0.012944173824159223
v 0.012944173824159225 0.015625 -0.03125
v 0.012944173824159225 0.140625 -0.03125
v -0.01294417382415922 0.015625 -0.03125
v -0.01294417382415922 0.140625 -0.03125
v -0.031249999999999997 0.015625 -0.012944173824159244
v -0.031249999999999997 0.140625 -0.012944173824159244
v -0.03125 0.015625 0.012944173824159229
v -0.03125 0.140625 0.012944173824159229
v -0.012944173824159242 0.015625 0.031249999999999997
v -0.012944173824159242 0.140625 0.031249999999999997
vt 0.4375 0.9322696428571429
vt 0.42905096153846156 0.9375
vt 0.4230769230769231 0.9285714285714286
vt 0.23557692307692307 0.7053571428571429
vt 0.2644230769230769 0.7053571428571429
vt 0.2644230769230769 0.7410714285714286
vt 0.23557692307692307 0.7410714285714286
vt 0.14058942307692307 0.7053571428571429
vt 0.14903846153846154 0.7105875
vt 0.13461538461538464 0.7142857142857143
vt 0.4375 0.9248732142857143
vt 0.4375 0.9322696428571429
vt 0.4230769230769231 0.9285714285714286
vt 0.32211538461538464 0.7767857142857143
vt 0.3509615384615385 0.7767857142857143
vt 0.3509615384615385 0.8125
vt 0.32211538461538464 0.8125
vt 0.14903846153846154 0.7105875
vt 0.14903846153846154 0.7179839285714286
vt 0.13461538461538464 0.7142857142857143
vt 0.42905096153846156 0.9196428571428572
vt 0.4375 0.9248732142857143
vt 0.4230769230769231 0.9285714285714286
vt 0.37980769230769235 0.7946428571428572
vt 0.40865384615384615 0.7946428571428572
vt 0.40865384615384615 0.8303571428571428
vt 0.37980769230769235 0.8303571428571428
vt 0.14903846153846154 0.7179839285714286
vt 0.14058942307692307 0.7232142857142857
vt 0.13461538461538464 0.7142857142857143
vt 0.41710288461538464 0.9196428571428572
vt 0.42905096153846156 0.9196428571428572
vt 0.4230769230769231 0.9285714285714286
vt 0.3509615384615385 0.9017857142857143
vt 0.37980769230769235 0.9017857142857143
vt 0.37980769230769235 0.9375
vt 0.3509615384615385 0.9375
vt 0.14058942307692307 0.7232142857142857
vt 0.12864134615384615 0.7232142857142857
vt 0.13461538461538464 0.7142857142857143
vt 0.40865384615384615 0.9248732142857143
vt 0.41710288461538464 0.9196428571428572
vt 0.4230769230769231 0.9285714285714286
vt 0.0625 0.6875
vt 0.09134615384615385 0.6875
vt 0.09134615384615385 0.7232142857142857
vt 0.0625 0.7232142857142857
vt 0.12864134615384615 0.7232142857142857
vt 0.1201923076923077 0.7179839285714286
vt 0.13461538461538464 0.7142857142857143
vt 0.40865384615384615 0.9322696428571429
vt 0.40865384615384615 0.9248732142857143
vt 0.4230769230769231 0.9285714285714286
vt 0.32211538461538464 0.7232142857142857
vt 0.3509615384615385 0.7232142857142857
vt 0.3509615384615385 0.7589285714285714
vt 0.32211538461538464 0.7589285714285714
vt 0.1201923076923077 0.7179839285714286
vt 0.1201923076923077 0.7105875
vt 0.13461538461538464 0.7142857142857143
vt 0.41710288461538464 0.9375
vt 0.40865384615384615 0.9322696428571429
vt 0.4230769230769231 0.9285714285714286
vt 0.37980769230769235 0.7410714285714286
vt 0.40865384615384615 0.7410714285714286
vt 0.40865384615384615 0.7767857142857143
vt 0.37980769230769235 0.7767857142857143
vt 0.1201923076923077 0.7105875
vt 0.12864134615384615 0.7053571428571429
vt 0.13461538461538464 0.7142857142857143
vt 0.42905096153846156 0.9375
vt 0.41710288461538464 0.9375
vt 0.4230769230769231 0.9285714285714286
vt 0.37980769230769235 0.8482142857142857
vt 0.40865384615384615 0.8482142857142857
vt 0.40865384615384615 0.8839285714285714
vt 0.37980769230769235 0.8839285714285714
vt 0.12864134615384615 0.7053571428571429
vt 0.14058942307692307 0.7053571428571429
vt 0.13461538461538464 0.7142857142857143
vn 0 -1 0
vn 0.7071067811865476 0 0.7071067811865476
vn 0 1 0
vn 0 -1 0
vn 1 0 0
vn 0 1 0
vn 0 -1 0
vn 0.7071067811865476 0 -0.7071067811865476
vn 0 1 0
vn 0 -1 0
vn 0 0 -1
vn 0 1 0
vn 0 -1 0
vn -0.7071067811865471 0 -0.7071067811865479
vn 0 1 0
vn 0 -1 0
vn -1 0 -1.340157741654464e-16
vn 0 1 0
vn 0 -1 0
vn -0.7071067811865478 0 0.7071067811865474
vn 0 1 0
vn 0 -1 0
vn -1.3401577416544645e-16 0 1
vn 0 1 0
usemtl m_27b0afad-128d-73a0-3b2c-34b7d48aa959
f 23/81/25 21/82/25 19/83/25
f 21/84/26 23/85/26 24/86/26 22/87/26
f 22/88/27 24/89/27 20/90/27
f 25/91/28 23/92/28 19/93/28
f 23/94/29 25/95/29 26/96/29 24/97/29
f 24/98/30 26/99/30 20/100/30
f 27/101/31 25/102/31 19/103/31
f 25/104/32 27/105/32 28/106/32 26/107/32
f 26/108/33 28/109/33 20/110/33
f 29/111/34 27/112/34 19/113/34
f 27/114/35 29/115/35 30/116/35 28/117/35
f 28/118/36 30/119/36 20/120/36
f 31/121/37 29/122/37 19/123/37
f 29/124/38 31/125/38 32/126/38 30/127/38
f 30/128/39 32/129/39 20/130/39
f 33/131/40 31/132/40 19/133/40
f 31/134/41 33/135/41 34/136/41 32/137/41
f 32/138/42 34/139/42 20/140/42
f 35/141/43 33/142/43 19/143/43
f 33/144/44 35/145/44 36/146/44 34/147/44
f 34/148/45 36/149/45 20/150/45
f 21/151/46 35/152/46 19/153/46
f 35/154/47 21/155/47 22/156/47 36/157/47
f 36/158/48 22/159/48 20/160/48
o sphere
v -1.1564823173178713e-18 0.0625 2.3129646346357427e-18
v -1.1564823173178713e-18 0.1875 2.3129646346357427e-18
v 0.018305826175840777 0.16919417382415922 0.04419417382415922
v 0.02588834764831844 0.125 0.0625
v 0.01830582617584078 0.08080582617584078 0.04419417382415922
v 0.044194173824159216 0.16919417382415922 0.018305826175840784
v 0.0625 0.125 0.025888347648318447
v 0.04419417382415922 0.08080582617584078 0.018305826175840787
v 0.044194173824159216 0.16919417382415922 -0.018305826175840773
v 0.0625 0.125 -0.025888347648318436
v 0.04419417382415922 0.08080582617584078 -0.018305826175840777
v 0.018305826175840784 0.16919417382415922 -0.04419417382415922
v 0.02588834764831845 0.125 -0.0625
v 0.018305826175840784 0.08080582617584078 -0.04419417382415922
v -0.018305826175840777 0.16919417382415922 -0.04419417382415922
v -0.02588834764831844 0.125 -0.0625
v -0.018305826175840777 0.08080582617584078 -0.04419417382415922
v -0.044194173824159216 0.16919417382415922 -0.018305826175840804
v -0.06249999999999998 0.125 -0.025888347648318478
v -0.044194173824159216 0.08080582617584078 -0.018305826175840808
v -0.044194173824159216 0.16919417382415922 0.01830582617584079
v -0.0625 0.125 0.02588834764831846
v -0.04419417382415922 0.08080582617584078 0.018305826175840798
v -0.01830582617584081 0.16919417382415922 0.0441941738241592
v -0.025888347648318488 0.125 0.06249999999999998
v -0.01830582617584081 0.08080582617584078 0.04419417382415922
vt 0.7152406229316409 0.8515304177584806
vt 0.7105365295255943 0.8416126358396423
vt 0.7214598079261638 0.8372791794154678
vt 0.7392759344501263 0.6458333333333333
vt 0.7376044237784914 0.625
vt 0.7490197530479249 0.625
vt 0.74734824237629 0.6458333333333333
vt 0.7789443414611331 0.6875
vt 0.780615852132768 0.6666666666666666
vt 0.7886881600589317 0.6666666666666666
vt 0.7903596707305666 0.6875
vt 0.6829765844038332 0.741720697493691
vt 0.6876806778098798 0.7318029155748527
vt 0.6938998628044027 0.7460541539178654
vt 0.7105365295255943 0.8416126358396423
vt 0.7114135800414925 0.8294807160863666
vt 0.7214598079261638 0.8372791794154678
vt 0.7794335304870443 0.7291666666666666
vt 0.7777620198154096 0.7083333333333333
vt 0.7891773490848429 0.7083333333333333
vt 0.7875058384132082 0.7291666666666666
vt 0.7088621570110069 0.6666666666666666
vt 0.7105336676826417 0.6458333333333333
vt 0.7186059756088055 0.6458333333333333
vt 0.7202774862804402 0.6666666666666666
vt 0.6838536349197314 0.7538526172469666
vt 0.6829765844038332 0.741720697493691
vt 0.6938998628044027 0.7460541539178654
vt 0.7114135800414925 0.8294807160863666
vt 0.7174236539630819 0.8213333460821345
vt 0.7214598079261638 0.8372791794154678
vt 0.7920311814022014 0.9375
vt 0.7903596707305666 0.9166666666666666
vt 0.801775 0.9166666666666666
vt 0.8001034893283652 0.9375
vt 0.625 0.6458333333333333
vt 0.6266715106716348 0.625
vt 0.6347438185977986 0.625
vt 0.6364153292694334 0.6458333333333333
vt 0.6898637088413209 0.7619999872511988
vt 0.6838536349197314 0.7538526172469666
vt 0.6938998628044027 0.7460541539178654
vt 0.7174236539630819 0.8213333460821345
vt 0.7254959618892457 0.8213333460821345
vt 0.7214598079261638 0.8372791794154678
vt 0.7518735853652833 0.6875
vt 0.7502020746936484 0.6666666666666666
vt 0.7616174039630819 0.6666666666666666
vt 0.7599458932914471 0.6875
vt 0.7777620198154096 0.8958333333333333
vt 0.7794335304870443 0.875
vt 0.7875058384132082 0.875
vt 0.7891773490848429 0.8958333333333333
vt 0.6979360167674846 0.7619999872511988
vt 0.6898637088413209 0.7619999872511988
vt 0.6938998628044027 0.7460541539178654
vt 0.7254959618892457 0.8213333460821345
vt 0.7315060358108352 0.8294807160863666
vt 0.7214598079261638 0.8372791794154678
vt 0.7668358795718874 0.6458333333333333
vt 0.7651643689002525 0.625
vt 0.776579698169686 0.625
vt 0.7749081874980512 0.6458333333333333
vt 0.6824845335349693 0.6458333333333333
vt 0.6841560442066041 0.625
vt 0.6922283521327679 0.625
vt 0.6938998628044027 0.6458333333333333
vt 0.703946090689074 0.7538526172469666
vt 0.6979360167674846 0.7619999872511988
vt 0.6938998628044027 0.7460541539178654
vt 0.7315060358108352 0.8294807160863666
vt 0.7323830863267333 0.8416126358396423
vt 0.7214598079261638 0.8372791794154678
vt 0.7794335304870443 0.7708333333333333
vt 0.7777620198154096 0.75
vt 0.7891773490848429 0.75
vt 0.7875058384132082 0.7708333333333333
vt 0.7777620198154096 0.8125
vt 0.7794335304870443 0.7916666666666666
vt 0.7875058384132082 0.7916666666666666
vt 0.7891773490848429 0.8125
vt 0.7048231412049721 0.741720697493691
vt 0.703946090689074 0.7538526172469666
vt 0.6938998628044027 0.7460541539178654
vt 0.7323830863267333 0.8416126358396423
vt 0.7276789929206867 0.8515304177584806
vt 0.7214598079261638 0.8372791794154678
vt 0.7920311814022014 0.6458333333333333
vt 0.7903596707305666 0.625
vt 0.801775 0.625
vt 0.8001034893283652 0.6458333333333333
vt 0.6525599451217611 0.6458333333333333
vt 0.6542314557933959 0.625
vt 0.6623037637195597 0.625
vt 0.6639752743911945 0.6458333333333333
vt 0.7001190477989256 0.7318029155748527
vt 0.7048231412049721 0.741720697493691
vt 0.6938998628044027 0.7460541539178654
vt 0.7231223490280547 0.8541666666666666
vt 0.7152406229316409 0.8515304177584806
vt 0.7214598079261638 0.8372791794154678
vt 0.7794335304870443 0.8541666666666666
vt 0.7777620198154096 0.8333333333333333
vt 0.7891773490848429 0.8333333333333333
vt 0.7875058384132082 0.8541666666666666
vt 0.6537422667674846 0.6875
vt 0.6554137774391194 0.6666666666666666
vt 0.6634860853652833 0.6666666666666666
vt 0.665157596036918 0.6875
vt 0.692237321702512 0.7291666666666666
vt 0.7001190477989256 0.7318029155748527
vt 0.6938998628044027 0.7460541539178654
vn 0.27059805007309845 0.9238795325112867 0.27059805007309845
vn 0.6532814824381882 0.38268343236508995 0.6532814824381884
vn 0.6532814824381882 -0.38268343236508967 0.6532814824381884
vn 0.2705980500730985 -0.9238795325112867 0.27059805007309856
vn 0.3826834323650898 0.9238795325112867 0
vn 0.9238795325112868 0.38268343236508995 0
vn 0.923879532511287 -0.3826834323650898 0
vn 0.38268343236508995 -0.9238795325112868 0
vn 0.2705980500730986 0.923879532511287 -0.2705980500730984
vn 0.6532814824381885 0.38268343236508995 -0.6532814824381881
vn 0.6532814824381884 -0.38268343236508967 -0.6532814824381882
vn 0.27059805007309856 -0.9238795325112867 -0.2705980500730985
vn 0 0.923879532511287 -0.3826834323650898
vn 0 0.38268343236508984 -0.9238795325112868
vn 0 -0.3826834323650897 -0.9238795325112867
vn 0 -0.9238795325112867 -0.3826834323650898
vn -0.27059805007309834 0.923879532511287 -0.27059805007309856
vn -0.6532814824381881 0.3826834323650898 -0.6532814824381884
vn -0.653281482438188 -0.38268343236508984 -0.6532814824381887
vn -0.27059805007309834 -0.9238795325112867 -0.2705980500730986
vn -0.3826834323650897 0.9238795325112867 0
vn -0.923879532511287 0.38268343236508967 -3.5020009446761733e-16
vn -0.9238795325112868 -0.38268343236508945 -1.8572164617766623e-16
vn -0.3826834323650899 -0.9238795325112867 -7.252881433641306e-17
vn -0.27059805007309845 0.9238795325112867 0.27059805007309834
vn -0.6532814824381884 0.38268343236509006 0.6532814824381882
vn -0.6532814824381885 -0.3826834323650898 0.6532814824381882
vn -0.27059805007309856 -0.923879532511287 0.27059805007309845
vn -2.1758644300923927e-16 0.9238795325112868 0.3826834323650898
vn -3.9397510627606947e-16 0.3826834323650898 0.9238795325112867
vn 0 -0.3826834323650893 0.923879532511287
vn 0 -0.9238795325112867 0.3826834323650898
usemtl m_27b0afad-128d-73a0-3b2c-34b7d48aa959
f 39/161/49 42/162/49 38/163/49
f 39/164/50 40/165/50 43/166/50 42/167/50
f 40/168/51 41/169/51 44/170/51 43/171/51
f 44/172/52 41/173/52 37/174/52
f 42/175/53 45/176/53 38/177/53
f 42/178/54 43/179/54 46/180/54 45/181/54
f 43/182/55 44/183/55 47/184/55 46/185/55
f 47/186/56 44/187/56 37/188/56
f 45/189/57 48/190/57 38/191/57
f 45/192/58 46/193/58 49/194/58 48/195/58
f 46/196/59 47/197/59 50/198/59 49/199/59
f 50/200/60 47/201/60 37/202/60
f 48/203/61 51/204/61 38/205/61
f 48/206/62 49/207/62 52/208/62 51/209/62
f 49/210/63 50/211/63 53/212/63 52/213/63
f 53/214/64 50/215/64 37/216/64
f 51/217/65 54/218/65 38/219/65
f 51/220/66 52/221/66 55/222/66 54/223/66
f 52/224/67 53/225/67 56/226/67 55/227/67
f 56/228/68 53/229/68 37/230/68
f 54/231/69 57/232/69 38/233/69
f 54/234/70 55/235/70 58/236/70 57/237/70
f 55/238/71 56/239/71 59/240/71 58/241/71
f 59/242/72 56/243/72 37/244/72
f 57/245/73 60/246/73 38/247/73
f 57/248/74 58/249/74 61/250/74 60/251/74
f 58/252/75 59/253/75 62/254/75 61/255/75
f 62/256/76 59/257/76 37/258/76
f 60/259/77 39/260/77 38/261/77
f 60/262/78 61/263/78 40/264/78 39/265/78
f 61/266/79 62/267/79 41/268/79 40/269/79
f 41/270/80 62/271/80 37/272/80