# Made in Blockbench 4.10.4
mtllib leopard_track.mtl

o cuboid
v 0.078125 -0.0234375 0.078125
v 0.203125 -0.0234375 0.015625
v 0.078125 -0.0546875 0.0625
v 0.203125 -0.0546875 0.015625
v 0.296875 -0.0234375 0.078125
v 0.359375 -0.0234375 -0.0625
v 0.265625 -0.0546875 0.0625
v 0.328125 -0.0546875 -0.078125
v 0.328125 -0.0234375 0.078125
v 0.390625 -0.0234375 -0.0625
v 0.359375 -0.0546875 0.0625
v 0.421875 -0.0546875 -0.0625
v 0.453125 -0.0234375 0.046875
v 0.484375 -0.0234375 -0.0625
v 0.4375 -0.0546875 0.03125
v 0.46875 -0.0546875 -0.0625
v -0.328125 -0.0234375 0.078125
v -0.390625 -0.0234375 -0.0625
v -0.359375 -0.0546875 0.0625
v -0.421875 -0.0546875 -0.0625
v -0.453125 -0.0234375 0.046875
v -0.484375 -0.0234375 -0.0625
v -0.4375 -0.0546875 0.03125
v -0.46875 -0.0546875 -0.0625
v -0.078125 -0.0234375 0.078125
v -0.203125 -0.0234375 0.015625
v -0.078125 -0.0546875 0.0625
v -0.203125 -0.0546875 0.015625
v -0.296875 -0.0234375 0.078125
v -0.359375 -0.0234375 -0.0625
v -0.265625 -0.0546875 0.0625
v -0.328125 -0.0546875 -0.078125
v 0 -0.0234375 0.078125
v 0 -0.0234375 -0.015625
v 0 -0.0546875 0.0625
v 0 -0.0546875 -0.015625
v -0.15625 -0.0234375 0.015625
v -0.28125 -0.0234375 -0.078125
v -0.140625 -0.0546875 0.015625
v -0.234375 -0.0546875 -0.078125
v 0 -0.0234375 0.078125
v 0 -0.0234375 -0.015625
v 0 -0.0546875 0.0625
v 0 -0.0546875 -0.015625
v 0.15625 -0.0234375 0.015625
v 0.28125 -0.0234375 -0.078125
v 0.140625 -0.0546875 0.015625
v 0.234375 -0.0546875 -0.078125
v -0.078125 0.0703125 0.046875
v -0.078125 0.0703125 0.015625
v -0.046875 0.0078125 0.078125
v -0.046875 0.0078125 -0.015625
v -0.09375 0.0703125 0.046875
v -0.09375 0.0703125 0.015625
v -0.09375 0.0078125 0.078125
v -0.09375 0.0078125 -0.015625
v 0.09375 0.0703125 -0.015625
v 0.09375 0.0703125 -0.046875
v 0.09375 0.0078125 0.015625
v 0.09375 0.0078125 -0.078125
v 0.078125 0.0703125 -0.015625
v 0.078125 0.0703125 -0.046875
v 0.046875 0.0078125 0.015625
v 0.046875 0.0078125 -0.078125
v 0.5 0.0078125 0.09375
v 0.5 0.0078125 -0.09375
v 0.484375 -0.0234375 0.09375
v 0.484375 -0.0234375 -0.09375
v -0.5 0.0078125 0.09375
v -0.5 0.0078125 -0.09375
v -0.484375 -0.0234375 0.09375
v -0.484375 -0.0234375 -0.09375
vt 0.7933812499999999 0.481521875
vt 0.796875 0.49864062499999995
vt 0.726996875 0.49864062499999995
vt 0.726996875 0.484375
vt 0.20233125000000002 0.34375
vt 0.12538749999999999 0.34375
vt 0.12618125 0.3125
vt 0.203125 0.3125
vt 0.25 0.5859375
vt 0.1875 0.5546875
vt 0.296875 0.5546875
vt 0.09375 0.4921875
vt 0 0.4921875
vt 0.0625 0.46875
vt 0.703125 0.75
vt 0.59375 0.75
vt 0.59375 0.71875
vt 0.6875 0.71875
vt 0.726996875 0.484375
vt 0.726996875 0.5
vt 0.63965 0.5
vt 0.65013125 0.484375
vt 0.09375 0.4921875
vt 0.0625 0.46875
vt 0.125 0.421875
vt 0.25 0.5859375
vt 0.296875 0.5546875
vt 0.328125 0.625
vt 0.4552625 0.28308750000000005
vt 0.46875 0.30225625
vt 0.39180312500000003 0.30225625
vt 0.385459375 0.28125
vt 0.4375 0.23712187500000004
vt 0.380621875 0.23712187500000004
vt 0.3859875 0.21875
vt 0.435353125 0.21988125000000003
vt 0.6148907304901383 0.90625
vt 0.5379465289136063 0.90625
vt 0.5776084884891383 0.855482691743319
vt 0.6339284710863937 0.8634150836584255
vt 0.3421004248593737 0.2989139870078079
vt 0.3141495751406263 0.33035869294139864
vt 0.3141495751406263 0.2604815686445303
vt 0.3351127124296869 0.25
vt 0.828125 0.98616875
vt 0.7637 0.98616875
vt 0.780753125 0.970090625
vt 0.822440625 0.96875
vt 0.75 0.59375
vt 0.765625 0.625
vt 0.71875 0.625
vt 0.7265625 0.59375
vt 0.704303125 0.89600625
vt 0.78125 0.89600625
vt 0.7677625 0.8768375
vt 0.697959375 0.875
vt 0.7609875 0.71875
vt 0.755621875 0.7371218749999999
vt 0.8125 0.7371218749999999
vt 0.810353125 0.71988125
vt 0.5776084884891383 0.949232691743319
vt 0.5379465289136063 1
vt 0.6148907304901383 1
vt 0.6339284710863937 0.9571650836584255
vt 0.2516495751406263 0.2604815686445303
vt 0.2516495751406263 0.33035869294139864
vt 0.2796004248593737 0.2989139870078079
vt 0.2726127124296869 0.25
vt 0.749503125 0.532590625
vt 0.73245 0.54866875
vt 0.796875 0.54866875
vt 0.791190625 0.53125
vt 0.71875 0.6875
vt 0.765625 0.6875
vt 0.75 0.65625
vt 0.7265625 0.65625
vt 0.508246875 0.37364062499999995
vt 0.578125 0.37364062499999995
vt 0.5746312499999999 0.356521875
vt 0.508246875 0.359375
vt 0.62618125 0.34375
vt 0.6253875 0.375
vt 0.70233125 0.375
vt 0.703125 0.34375
vt 0 0.5546875
vt 0.0625 0.5859375
vt 0.109375 0.5546875
vt 0.375 0.6171875
vt 0.46875 0.6171875
vt 0.4375 0.59375
vt 0.15625 0.375
vt 0.15625 0.40625
vt 0.265625 0.40625
vt 0.25 0.375
vt 0.4209 0.375
vt 0.508246875 0.375
vt 0.508246875 0.359375
vt 0.43138125 0.359375
vt 0.4375 0.59375
vt 0.46875 0.6171875
vt 0.5 0.546875
vt 0.109375 0.5546875
vt 0.0625 0.5859375
vt 0.140625 0.625
vt 0.71875 0.4375
vt 0.65625 0.4375
vt 0.6640625 0.40625
vt 0.71875 0.40625
vt 0.6791044355753086 0.7888163853253136
vt 0.6716586886132545 0.8046189486751966
vt 0.59375 0.7988093132681386
vt 0.6138614533690101 0.78125
vt 0.544808153613666 0.7413196935282534
vt 0.53125 0.6582760026445491
vt 0.5625 0.6684446178547987
vt 0.5625 0.8125
vt 0.6571713337635092 0.53125
vt 0.6672362810510222 0.5625
vt 0.5932589184878018 0.5579707737206192
vt 0.5358887189489778 0.53125
vt 0.7528993136132546 0.7873908236751965
vt 0.7557993136132546 0.8046189486751966
vt 0.6716586886132545 0.8046189486751966
vt 0.6789118136132546 0.7892251986751966
vt 0.67530625 0.625
vt 0.53125 0.625
vt 0.53125 0.59375
vt 0.652425 0.59375
vt 0.1953125 0.25
vt 0.203125 0.28125
vt 0.15625 0.28125
vt 0.15625 0.25
vt 0.609375 0.42380931326813864
vt 0.5314663113867455 0.42961894867519657
vt 0.5240205644246914 0.4138163853253136
vt 0.5892635466309899 0.40625
vt 0.16743161653252409 0.5
vt 0.15726300132227455 0.4542412315538772
vt 0.2403066922059789 0.46779938516754316
vt 0.31148699867772545 0.5
vt 0.381530049884706 0.44799519953882394
vt 0.38605927616408686 0.5219725621020443
vt 0.34831572383591314 0.5119076148145314
vt 0.34831572383591314 0.390625
vt 0.5314663113867455 0.42961894867519657
vt 0.44732568638674547 0.42961894867519657
vt 0.4502256863867454 0.4123908236751965
vt 0.5242131863867454 0.4142251986751966
vt 0.59375 0.46875
vt 0.59375 0.5
vt 0.4375 0.5
vt 0.46038125 0.46875
vt 0.09375 0.28125
vt 0.078125 0.28125
vt 0.0625 0.25
vt 0.109375 0.25
vt 0.734375 0.28125
vt 0.71875 0.3125
vt 0.703125 0.3125
vt 0.6875 0.28125
vt 0.53125 0.21875
vt 0.5625 0.21875
vt 0.5625 0.25
vt 0.53125 0.25
vt 0.71875 0.9375
vt 0.71875 1
vt 0.6875 1
vt 0.6875 0.9375
vt 0.77734375 0.34375
vt 0.76171875 0.375
vt 0.75390625 0.375
vt 0.75390625 0.34375
vt 0.78125 0.4375
vt 0.765625 0.4375
vt 0.75 0.40625
vt 0.78125 0.40625
vt 0.53125 0.3125
vt 0.515625 0.3125
vt 0.5 0.28125
vt 0.546875 0.28125
vt 0.640625 0.28125
vt 0.625 0.3125
vt 0.609375 0.3125
vt 0.59375 0.28125
vt 0 0.40625
vt 0.03125 0.40625
vt 0.03125 0.4375
vt 0 0.4375
vt 0.03125 0.25
vt 0.03125 0.3125
vt 0 0.3125
vt 0 0.25
vt 0.5 0.21875
vt 0.5 0.25
vt 0.484375 0.25
vt 0.46875 0.21875
vt 0.60546875 0.25
vt 0.59765625 0.25
vt 0.59765625 0.21875
vt 0.62109375 0.21875
vt 0.6875 0.6875
vt 0.59375 0.6875
vt 0.59375 0.65625
vt 0.6875 0.65625
vt 0.09375 0.34375
vt 0.09375 0.375
vt 0 0.375
vt 0 0.34375
vt 0 0.90625
vt 0.5 0.90625
vt 0.5 1
vt 0 1
vt 0.5 0.78125
vt 0.5 0.875
vt 0 0.875
vt 0 0.78125
vt 0.4921875 0.71875
vt 0.5 0.75
vt 0 0.75
vt 0.0078125 0.71875
vt 0.5 0.6875
vt 0 0.6875
vt 0.0078125 0.65625
vt 0.4921875 0.65625
vn -0.4082482904638631 0.4082482904638631 -0.8164965809277261
vn 0.6095569153307367 -0.745014007626456 0.27091418459143857
vn 0 1 0
vn 0 -1 0
vn 0 -0.44721359549995804 0.8944271909999161
vn -0.44721359549995804 0 -0.8944271909999161
vn 0 -1 0
vn 0 1 0
vn -0.7448452997421312 -0.5793241220216576 -0.33104235544094723
vn 0.8178887329717806 -0.5257856140532875 0.23368249513479444
vn 0 1 0
vn 0 -1 0
vn 0.23570226039551587 -0.23570226039551587 0.9428090415820635
vn 0 0 -1
vn 0.7448452997421312 -0.5793241220216576 -0.33104235544094723
vn -0.8178887329717806 -0.5257856140532875 0.23368249513479444
vn 0 1 0
vn 0 -1 0
vn -0.23570226039551587 -0.23570226039551587 0.9428090415820635
vn 0 0 -1
vn 0.4082482904638631 0.4082482904638631 -0.8164965809277261
vn -0.6095569153307367 -0.745014007626456 0.27091418459143857
vn 0 1 0
vn 0 -1 0
vn 0 -0.44721359549995804 0.8944271909999161
vn 0.44721359549995804 0 -0.8944271909999161
vn 0 -1 0
vn 0 1 0
vn 1 0 0
vn -0.5746957711326909 -0.28734788556634544 0.7662610281769213
vn 0 1 0
vn 0 -1 0
vn -0.33686076842660767 -0.4210759605332596 0.8421519210665191
vn 0.21693045781865616 0 -0.9761870601839528
vn -1 0 0
vn 0.5746957711326909 -0.28734788556634544 0.7662610281769213
vn 0 1 0
vn 0 -1 0
vn 0.33686076842660767 -0.4210759605332596 0.8421519210665191
vn -0.21693045781865616 0 -0.9761870601839528
vn 0.8944271909999161 0.44721359549995804 0
vn -1 0 0
vn 0 1 0
vn 0 -1 0
vn 0 0.44721359549995804 0.8944271909999161
vn 0 0.44721359549995804 -0.8944271909999161
vn 1 0 0
vn -0.8944271909999161 0.44721359549995804 0
vn 0 1 0
vn 0 -1 0
vn 0 0.44721359549995804 0.8944271909999161
vn 0 0.44721359549995804 -0.8944271909999161
vn 0.8944271909999161 -0.44721359549995804 0
vn -0.8944271909999161 -0.44721359549995804 0
vn 0 1 0
vn 0 -1 0
vn 0 0 1
vn 0 0 -1
usemtl m_f80111a7-4f03-acef-fa3a-132642801a41
f 3/1/1 1/2/1 2/3/1 4/4/1
f 6/5/2 5/6/2 7/7/2 8/8/2
f 2/9/3 1/10/3 5/11/3
f 7/12/4 3/13/4 4/14/4
f 5/15/5 1/16/5 3/17/5 7/18/5
f 4/19/6 2/20/6 6/21/6 8/22/6
f 7/23/7 4/24/7 8/25/7
f 2/26/8 5/27/8 6/28/8
f 11/29/9 9/30/9 10/31/9 12/32/9
f 14/33/10 13/34/10 15/35/10 16/36/10
f 10/37/11 9/38/11 13/39/11 14/40/11
f 15/41/12 11/42/12 12/43/12 16/44/12
f 13/45/13 9/46/13 11/47/13 15/48/13
f 12/49/14 10/50/14 14/51/14 16/52/14
f 18/53/15 17/54/15 19/55/15 20/56/15
f 23/57/16 21/58/16 22/59/16 24/60/16
f 21/61/17 17/62/17 18/63/17 22/64/17
f 20/65/18 19/66/18 23/67/18 24/68/18
f 19/69/19 17/70/19 21/71/19 23/72/19
f 22/73/20 18/74/20 20/75/20 24/76/20
f 26/77/21 25/78/21 27/79/21 28/80/21
f 31/81/22 29/82/22 30/83/22 32/84/22
f 25/85/23 26/86/23 29/87/23
f 27/88/24 31/89/24 28/90/24
f 27/91/25 25/92/25 29/93/25 31/94/25
f 30/95/26 26/96/26 28/97/26 32/98/26
f 28/99/27 31/100/27 32/101/27
f 29/102/28 26/103/28 30/104/28
f 34/105/29 33/106/29 35/107/29 36/108/29
f 39/109/30 37/110/30 38/111/30 40/112/30
f 37/113/31 33/114/31 34/115/31 38/116/31
f 36/117/32 35/118/32 39/119/32 40/120/32
f 35/121/33 33/122/33 37/123/33 39/124/33
f 38/125/34 34/126/34 36/127/34 40/128/34
f 43/129/35 41/130/35 42/131/35 44/132/35
f 46/133/36 45/134/36 47/135/36 48/136/36
f 42/137/37 41/138/37 45/139/37 46/140/37
f 47/141/38 43/142/38 44/143/38 48/144/38
f 45/145/39 41/146/39 43/147/39 47/148/39
f 44/149/40 42/150/40 46/151/40 48/152/40
f 50/153/41 49/154/41 51/155/41 52/156/41
f 55/157/42 53/158/42 54/159/42 56/160/42
f 53/161/43 49/162/43 50/163/43 54/164/43
f 52/165/44 51/166/44 55/167/44 56/168/44
f 51/169/45 49/170/45 53/171/45 55/172/45
f 54/173/46 50/174/46 52/175/46 56/176/46
f 58/177/47 57/178/47 59/179/47 60/180/47
f 63/181/48 61/182/48 62/183/48 64/184/48
f 61/185/49 57/186/49 58/187/49 62/188/49
f 60/189/50 59/190/50 63/191/50 64/192/50
f 59/193/51 57/194/51 61/195/51 63/196/51
f 62/197/52 58/198/52 60/199/52 64/200/52
f 66/201/53 65/202/53 67/203/53 68/204/53
f 71/205/54 69/206/54 70/207/54 72/208/54
f 69/209/55 65/210/55 66/211/55 70/212/55
f 68/213/56 67/214/56 71/215/56 72/216/56
f 67/217/57 65/218/57 69/219/57 71/220/57
f 70/221/58 66/222/58 68/223/58 72/224/58