# Made in Blockbench 4.10.3
mtllib trucklight_america2.mtl

o &reverselight
v -0.234375 0 -0.0171875
v -0.234375 6.938893903907228e-18 0.014062499999999999
v -0.20848665235168157 -0.0625 -0.017187499999999988
v -0.20848665235168157 -0.06249999999999999 0.014062500000000012
v -0.171875 -0.025888347648318447 -0.017187499999999994
v -0.171875 -0.02588834764831844 0.014062500000000006
v -0.171875 0.02588834764831844 -0.01718750000000001
v -0.171875 0.025888347648318447 0.014062499999999992
v -0.20848665235168154 0.0625 -0.017187500000000015
v -0.20848665235168154 0.0625 0.014062499999999985
v -0.26026334764831843 0.06250000000000001 -0.017187500000000015
v -0.26026334764831843 0.06250000000000003 0.014062499999999985
v -0.296875 0.02588834764831848 -0.01718750000000001
v -0.296875 0.025888347648318488 0.014062499999999992
v -0.296875 -0.025888347648318457 -0.017187499999999994
v -0.296875 -0.02588834764831845 0.014062500000000006
v -0.2602633476483185 -0.062499999999999986 -0.017187499999999988
v -0.2602633476483185 -0.06249999999999998 0.014062500000000012
v 0.234375 0 -0.0171875
v 0.234375 6.938893903907228e-18 0.014062499999999999
v 0.26026334764831843 -0.0625 -0.017187499999999988
v 0.26026334764831843 -0.06249999999999999 0.014062500000000012
v 0.296875 -0.025888347648318447 -0.017187499999999994
v 0.296875 -0.02588834764831844 0.014062500000000006
v 0.296875 0.02588834764831844 -0.01718750000000001
v 0.296875 0.025888347648318447 0.014062499999999992
v 0.26026334764831843 0.06249999999999999 -0.017187500000000015
v 0.26026334764831843 0.0625 0.014062499999999985
v 0.20848665235168157 0.06250000000000001 -0.017187500000000015
v 0.20848665235168157 0.06250000000000003 0.014062499999999985
v 0.171875 0.02588834764831848 -0.01718750000000001
v 0.171875 0.025888347648318488 0.014062499999999992
v 0.171875 -0.025888347648318457 -0.017187499999999994
v 0.171875 -0.02588834764831845 0.014062500000000006
v 0.2084866523516815 -0.062499999999999986 -0.017187499999999988
v 0.2084866523516815 -0.06249999999999998 0.014062500000000012
vt 0.06764918814183951 0.9521636928300614
vt 0.04783409215813851 1
vt 0 0.9521636928300614
vt 3.1710745140856034e-15 0.9375
vt 0.05177500000000317 0.9375
vt 0.05177500000000317 1
vt 3.1710745140856034e-15 1
vt 3.122502256758253e-17 0.9323508118581605
vt 0.04783630716993858 0.9521659078418615
vt 0 1
vt 0.0625 0.9482249999999969
vt 0.0625 0.9999999999999968
vt 0 0.9741124999999968
vt 3.1710745140856034e-15 0.9375
vt 0.05177500000000317 0.9375
vt 0.05177500000000317 1
vt 3.1710745140856034e-15 1
vt 0.0625 0.9482249999999969
vt 0.0625 0.9999999999999968
vt 0 0.9741124999999968
vt 3.122502256758253e-17 0.9323508118581605
vt 0.04783630716993858 0.9521659078418615
vt 0 1
vt 3.1710745140856034e-15 0.9375
vt 0.05177500000000317 0.9375
vt 0.05177500000000317 1
vt 3.1710745140856034e-15 1
vt 0.06764918814183951 0.9521636928300614
vt 0.04783409215813851 1
vt 0 0.9521636928300614
vt 3.1710745140856034e-15 0.9375
vt 0.05177500000000317 0.9375
vt 0.025887500000003172 1
vt 3.1710745140856034e-15 0.9375
vt 0.05177500000000317 0.9375
vt 0.05177500000000317 1
vt 3.1710745140856034e-15 1
vt 0.05177500000000317 1
vt 3.1710745140856034e-15 1
vt 0.025887500000003172 0.9375
vt 3.3306690738754696e-15 1
vt 0.01981509598370433 0.9521636928300614
vt 0.06764918814184284 1
vt 3.1710745140856034e-15 0.9375
vt 0.05177500000000317 0.9375
vt 0.05177500000000317 1
vt 3.1710745140856034e-15 1
vt 0.04783630716993857 0.9999999999999967
vt 0 0.9801849040162957
vt 0.04783630716993856 0.9323508118581572
vt 0 0.9999999999999968
vt 0 0.9482249999999969
vt 0.0625 0.9741124999999968
vt 3.1710745140856034e-15 0.9375
vt 0.05177500000000317 0.9375
vt 0.05177500000000317 1
vt 3.1710745140856034e-15 1
vt 0 0.9999999999999968
vt 0 0.9482249999999969
vt 0.0625 0.9741124999999968
vt 0.04783630716993857 0.9999999999999967
vt 0 0.9801849040162957
vt 0.04783630716993856 0.9323508118581572
vt 3.1710745140856034e-15 0.9375
vt 0.05177500000000317 0.9375
vt 0.05177500000000317 1
vt 3.1710745140856034e-15 1
vt 3.3306690738754696e-15 1
vt 0.01981509598370433 0.9521636928300614
vt 0.06764918814184284 1
vt 0.05177500000000317 1
vt 3.1710745140856034e-15 1
vt 0.025887500000003172 0.9375
vt 3.1710745140856034e-15 0.9375
vt 0.05177500000000317 0.9375
vt 0.05177500000000317 1
vt 3.1710745140856034e-15 1
vt 3.1710745140856034e-15 0.9375
vt 0.05177500000000317 0.9375
vt 0.025887500000003172 1
vt 0.06764918814183951 0.9521636928300614
vt 0.04783409215813851 1
vt 0 0.9521636928300614
vt 3.1710745140856034e-15 0.9375
vt 0.05177500000000317 0.9375
vt 0.05177500000000317 1
vt 3.1710745140856034e-15 1
vt 3.122502256758253e-17 0.9323508118581605
vt 0.04783630716993858 0.9521659078418615
vt 0 1
vt 0.0625 0.9482249999999969
vt 0.0625 0.9999999999999968
vt 0 0.9741124999999968
vt 3.1710745140856034e-15 0.9375
vt 0.05177500000000317 0.9375
vt 0.05177500000000317 1
vt 3.1710745140856034e-15 1
vt 0.0625 0.9482249999999969
vt 0.0625 0.9999999999999968
vt 0 0.9741124999999968
vt 3.122502256758253e-17 0.9323508118581605
vt 0.04783630716993858 0.9521659078418615
vt 0 1
vt 3.1710745140856034e-15 0.9375
vt 0.05177500000000317 0.9375
vt 0.05177500000000317 1
vt 3.1710745140856034e-15 1
vt 0.06764918814183951 0.9521636928300614
vt 0.04783409215813851 1
vt 0 0.9521636928300614
vt 3.1710745140856034e-15 0.9375
vt 0.05177500000000317 0.9375
vt 0.025887500000003172 1
vt 3.1710745140856034e-15 0.9375
vt 0.05177500000000317 0.9375
vt 0.05177500000000317 1
vt 3.1710745140856034e-15 1
vt 0.05177500000000317 1
vt 3.1710745140856034e-15 1
vt 0.025887500000003172 0.9375
vt 3.3306690738754696e-15 1
vt 0.01981509598370433 0.9521636928300614
vt 0.06764918814184284 1
vt 3.1710745140856034e-15 0.9375
vt 0.05177500000000317 0.9375
vt 0.05177500000000317 1
vt 3.1710745140856034e-15 1
vt 0.04783630716993857 0.9999999999999967
vt 0 0.9801849040162957
vt 0.04783630716993856 0.9323508118581572
vt 0 0.9999999999999968
vt 0 0.9482249999999969
vt 0.0625 0.9741124999999968
vt 3.1710745140856034e-15 0.9375
vt 0.05177500000000317 0.9375
vt 0.05177500000000317 1
vt 3.1710745140856034e-15 1
vt 0 0.9999999999999968
vt 0 0.9482249999999969
vt 0.0625 0.9741124999999968
vt 0.04783630716993857 0.9999999999999967
vt 0 0.9801849040162957
vt 0.04783630716993856 0.9323508118581572
vt 3.1710745140856034e-15 0.9375
vt 0.05177500000000317 0.9375
vt 0.05177500000000317 1
vt 3.1710745140856034e-15 1
vt 3.3306690738754696e-15 1
vt 0.01981509598370433 0.9521636928300614
vt 0.06764918814184284 1
vt 0.05177500000000317 1
vt 3.1710745140856034e-15 1
vt 0.025887500000003172 0.9375
vt 3.1710745140856034e-15 0.9375
vt 0.05177500000000317 0.9375
vt 0.05177500000000317 1
vt 3.1710745140856034e-15 1
vt 3.1710745140856034e-15 0.9375
vt 0.05177500000000317 0.9375
vt 0.025887500000003172 1
vn 0 -2.220446049250313e-16 -1
vn 0.7071067811865476 -0.7071067811865476 1.5700924586837752e-16
vn 0 2.220446049250313e-16 1
vn 0 -2.220446049250313e-16 -1
vn 1 0 0
vn 0 2.220446049250313e-16 1
vn 0 -2.220446049250313e-16 -1
vn 0.7071067811865476 0.7071067811865475 -1.570092458683775e-16
vn 0 2.220446049250313e-16 1
vn 0 -2.220446049250313e-16 -1
vn 2.6803154833089315e-16 1 -2.220446049250313e-16
vn 0 2.220446049250313e-16 1
vn 0 -2.220446049250313e-16 -1
vn -0.7071067811865474 0.7071067811865477 -1.5700924586837754e-16
vn 0 2.220446049250313e-16 1
vn 0 -2.220446049250313e-16 -1
vn -1 1.3401577416544645e-16 -2.9757479628288774e-32
vn 0 2.220446049250313e-16 1
vn 0 -2.220446049250313e-16 -1
vn -0.7071067811865477 -0.7071067811865474 1.5700924586837747e-16
vn 0 2.220446049250313e-16 1
vn 0 -2.220446049250313e-16 -1
vn -2.680315483308929e-16 -1 2.220446049250313e-16
vn 0 2.220446049250313e-16 1
vn 0 -2.220446049250313e-16 -1
vn 0.7071067811865475 -0.7071067811865477 1.5700924586837754e-16
vn 0 2.220446049250313e-16 1
vn 0 -2.220446049250313e-16 -1
vn 1 0 0
vn 0 2.220446049250313e-16 1
vn 0 -2.220446049250313e-16 -1
vn 0.7071067811865475 0.7071067811865477 -1.5700924586837754e-16
vn 0 2.220446049250313e-16 1
vn 0 -2.220446049250313e-16 -1
vn 4.0204732249633987e-16 1 -6.661338147750939e-16
vn 0 2.220446049250313e-16 1
vn 0 -2.220446049250313e-16 -1
vn -0.7071067811865472 0.7071067811865479 -1.570092458683776e-16
vn 0 2.220446049250313e-16 1
vn 0 -2.220446049250313e-16 -1
vn -1 0 0
vn 0 2.220446049250313e-16 1
vn 0 -2.220446049250313e-16 -1
vn -0.7071067811865477 -0.7071067811865474 1.5700924586837747e-16
vn 0 2.220446049250313e-16 1
vn 0 -2.220446049250313e-16 -1
vn -2.6803154833089295e-16 -1 2.220446049250313e-16
vn 0 2.220446049250313e-16 1
usemtl m_9d090a16-2a91-371d-ff98-56451cdd0852
f 5/1/1 3/2/1 1/3/1
f 3/4/2 5/5/2 6/6/2 4/7/2
f 4/8/3 6/9/3 2/10/3
f 7/11/4 5/12/4 1/13/4
f 5/14/5 7/15/5 8/16/5 6/17/5
f 6/18/6 8/19/6 2/20/6
f 9/21/7 7/22/7 1/23/7
f 7/24/8 9/25/8 10/26/8 8/27/8
f 8/28/9 10/29/9 2/30/9
f 11/31/10 9/32/10 1/33/10
f 9/34/11 11/35/11 12/36/11 10/37/11
f 10/38/12 12/39/12 2/40/12
f 13/41/13 11/42/13 1/43/13
f 11/44/14 13/45/14 14/46/14 12/47/14
f 12/48/15 14/49/15 2/50/15
f 15/51/16 13/52/16 1/53/16
f 13/54/17 15/55/17 16/56/17 14/57/17
f 14/58/18 16/59/18 2/60/18
f 17/61/19 15/62/19 1/63/19
f 15/64/20 17/65/20 18/66/20 16/67/20
f 16/68/21 18/69/21 2/70/21
f 3/71/22 17/72/22 1/73/22
f 17/74/23 3/75/23 4/76/23 18/77/23
f 18/78/24 4/79/24 2/80/24
f 23/81/25 21/82/25 19/83/25
f 21/84/26 23/85/26 24/86/26 22/87/26
f 22/88/27 24/89/27 20/90/27
f 25/91/28 23/92/28 19/93/28
f 23/94/29 25/95/29 26/96/29 24/97/29
f 24/98/30 26/99/30 20/100/30
f 27/101/31 25/102/31 19/103/31
f 25/104/32 27/105/32 28/106/32 26/107/32
f 26/108/33 28/109/33 20/110/33
f 29/111/34 27/112/34 19/113/34
f 27/114/35 29/115/35 30/116/35 28/117/35
f 28/118/36 30/119/36 20/120/36
f 31/121/37 29/122/37 19/123/37
f 29/124/38 31/125/38 32/126/38 30/127/38
f 30/128/39 32/129/39 20/130/39
f 33/131/40 31/132/40 19/133/40
f 31/134/41 33/135/41 34/136/41 32/137/41
f 32/138/42 34/139/42 20/140/42
f 35/141/43 33/142/43 19/143/43
f 33/144/44 35/145/44 36/146/44 34/147/44
f 34/148/45 36/149/45 20/150/45
f 21/151/46 35/152/46 19/153/46
f 35/154/47 21/155/47 22/156/47 36/157/47
f 36/158/48 22/159/48 20/160/48
o &brakelightright
v -0.390625 0 -0.0171875
v -0.390625 6.938893903907228e-18 0.014062499999999999
v -0.36473665235168157 -0.0625 -0.017187499999999988
v -0.36473665235168157 -0.06249999999999999 0.014062500000000012
v -0.328125 -0.025888347648318447 -0.017187499999999994
v -0.328125 -0.02588834764831844 0.014062500000000006
v -0.328125 0.02588834764831844 -0.01718750000000001
v -0.328125 0.025888347648318447 0.014062499999999992
v -0.36473665235168157 0.0625 -0.017187500000000015
v -0.36473665235168157 0.0625 0.014062499999999985
v -0.41651334764831843 0.06250000000000001 -0.017187500000000015
v -0.41651334764831843 0.06250000000000003 0.014062499999999985
v -0.453125 0.02588834764831848 -0.01718750000000001
v -0.453125 0.025888347648318488 0.014062499999999992
v -0.453125 -0.025888347648318457 -0.017187499999999994
v -0.453125 -0.02588834764831845 0.014062500000000006
v -0.4165133476483185 -0.062499999999999986 -0.017187499999999988
v -0.4165133476483185 -0.06249999999999998 0.014062500000000012
vt 0.3801491881418395 0.8896636928300614
vt 0.3603340921581385 0.9375
vt 0.3125 0.8896636928300614
vt 0.31250000000000316 0.875
vt 0.3642750000000032 0.875
vt 0.3642750000000032 0.9375
vt 0.31250000000000316 0.9375
vt 0.3125 0.8698508118581605
vt 0.3603363071699386 0.8896659078418615
vt 0.3125 0.9375
vt 0.375 0.8857249999999968
vt 0.375 0.9374999999999969
vt 0.3125 0.9116124999999968
vt 0.31250000000000316 0.875
vt 0.3642750000000032 0.875
vt 0.3642750000000032 0.9375
vt 0.31250000000000316 0.9375
vt 0.375 0.8857249999999968
vt 0.375 0.9374999999999969
vt 0.3125 0.9116124999999968
vt 0.3125 0.8698508118581605
vt 0.3603363071699386 0.8896659078418615
vt 0.3125 0.9375
vt 0.31250000000000316 0.875
vt 0.3642750000000032 0.875
vt 0.3642750000000032 0.9375
vt 0.31250000000000316 0.9375
vt 0.3801491881418395 0.8896636928300614
vt 0.3603340921581385 0.9375
vt 0.3125 0.8896636928300614
vt 0.31250000000000316 0.875
vt 0.3642750000000032 0.875
vt 0.33838750000000317 0.9375
vt 0.31250000000000316 0.875
vt 0.3642750000000032 0.875
vt 0.3642750000000032 0.9375
vt 0.31250000000000316 0.9375
vt 0.3642750000000032 0.9375
vt 0.31250000000000316 0.9375
vt 0.33838750000000317 0.875
vt 0.31250000000000333 0.9375
vt 0.33231509598370434 0.8896636928300614
vt 0.38014918814184284 0.9375
vt 0.31250000000000316 0.875
vt 0.3642750000000032 0.875
vt 0.3642750000000032 0.9375
vt 0.31250000000000316 0.9375
vt 0.3603363071699386 0.9374999999999967
vt 0.3125 0.9176849040162957
vt 0.3603363071699386 0.8698508118581572
vt 0.3125 0.9374999999999969
vt 0.3125 0.8857249999999968
vt 0.375 0.9116124999999968
vt 0.31250000000000316 0.875
vt 0.3642750000000032 0.875
vt 0.3642750000000032 0.9375
vt 0.31250000000000316 0.9375
vt 0.3125 0.9374999999999969
vt 0.3125 0.8857249999999968
vt 0.375 0.9116124999999968
vt 0.3603363071699386 0.9374999999999967
vt 0.3125 0.9176849040162957
vt 0.3603363071699386 0.8698508118581572
vt 0.31250000000000316 0.875
vt 0.3642750000000032 0.875
vt 0.3642750000000032 0.9375
vt 0.31250000000000316 0.9375
vt 0.31250000000000333 0.9375
vt 0.33231509598370434 0.8896636928300614
vt 0.38014918814184284 0.9375
vt 0.3642750000000032 0.9375
vt 0.31250000000000316 0.9375
vt 0.33838750000000317 0.875
vt 0.31250000000000316 0.875
vt 0.3642750000000032 0.875
vt 0.3642750000000032 0.9375
vt 0.31250000000000316 0.9375
vt 0.31250000000000316 0.875
vt 0.3642750000000032 0.875
vt 0.33838750000000317 0.9375
vn 0 -2.220446049250313e-16 -1
vn 0.7071067811865476 -0.7071067811865476 1.5700924586837752e-16
vn 0 2.220446049250313e-16 1
vn 0 -2.220446049250313e-16 -1
vn 1 0 0
vn 0 2.220446049250313e-16 1
vn 0 -2.220446049250313e-16 -1
vn 0.7071067811865476 0.7071067811865475 -1.570092458683775e-16
vn 0 2.220446049250313e-16 1
vn 0 -2.220446049250313e-16 -1
vn 2.6803154833089315e-16 1 -2.220446049250313e-16
vn 0 2.220446049250313e-16 1
vn 0 -2.220446049250313e-16 -1
vn -0.7071067811865474 0.7071067811865477 -1.5700924586837754e-16
vn 0 2.220446049250313e-16 1
vn 0 -2.220446049250313e-16 -1
vn -1 1.3401577416544645e-16 -2.9757479628288774e-32
vn 0 2.220446049250313e-16 1
vn 0 -2.220446049250313e-16 -1
vn -0.7071067811865477 -0.7071067811865474 1.5700924586837747e-16
vn 0 2.220446049250313e-16 1
vn 0 -2.220446049250313e-16 -1
vn -2.680315483308929e-16 -1 2.220446049250313e-16
vn 0 2.220446049250313e-16 1
usemtl m_9d090a16-2a91-371d-ff98-56451cdd0852
f 41/161/49 39/162/49 37/163/49
f 39/164/50 41/165/50 42/166/50 40/167/50
f 40/168/51 42/169/51 38/170/51
f 43/171/52 41/172/52 37/173/52
f 41/174/53 43/175/53 44/176/53 42/177/53
f 42/178/54 44/179/54 38/180/54
f 45/181/55 43/182/55 37/183/55
f 43/184/56 45/185/56 46/186/56 44/187/56
f 44/188/57 46/189/57 38/190/57
f 47/191/58 45/192/58 37/193/58
f 45/194/59 47/195/59 48/196/59 46/197/59
f 46/198/60 48/199/60 38/200/60
f 49/201/61 47/202/61 37/203/61
f 47/204/62 49/205/62 50/206/62 48/207/62
f 48/208/63 50/209/63 38/210/63
f 51/211/64 49/212/64 37/213/64
f 49/214/65 51/215/65 52/216/65 50/217/65
f 50/218/66 52/219/66 38/220/66
f 53/221/67 51/222/67 37/223/67
f 51/224/68 53/225/68 54/226/68 52/227/68
f 52/228/69 54/229/69 38/230/69
f 39/231/70 53/232/70 37/233/70
f 53/234/71 39/235/71 40/236/71 54/237/71
f 54/238/72 40/239/72 38/240/72
o &brakelightleft
v 0.390625 0 -0.0171875
v 0.390625 6.938893903907228e-18 0.014062499999999999
v 0.36473665235168157 -0.0625 -0.017187499999999988
v 0.36473665235168157 -0.06249999999999999 0.014062500000000012
v 0.328125 -0.025888347648318447 -0.017187499999999994
v 0.328125 -0.02588834764831844 0.014062500000000006
v 0.328125 0.02588834764831844 -0.01718750000000001
v 0.328125 0.025888347648318447 0.014062499999999992
v 0.36473665235168157 0.0625 -0.017187500000000015
v 0.36473665235168157 0.0625 0.014062499999999985
v 0.41651334764831843 0.06250000000000001 -0.017187500000000015
v 0.41651334764831843 0.06250000000000003 0.014062499999999985
v 0.453125 0.02588834764831848 -0.01718750000000001
v 0.453125 0.025888347648318488 0.014062499999999992
v 0.453125 -0.025888347648318457 -0.017187499999999994
v 0.453125 -0.02588834764831845 0.014062500000000006
v 0.4165133476483185 -0.062499999999999986 -0.017187499999999988
v 0.4165133476483185 -0.06249999999999998 0.014062500000000012
vt 0.3603340921581385 0.9375
vt 0.3801491881418395 0.8896636928300614
vt 0.3125 0.8896636928300614
vt 0.3642750000000032 0.9375
vt 0.3642750000000032 0.875
vt 0.31250000000000316 0.875
vt 0.31250000000000316 0.9375
vt 0.3603363071699386 0.8896659078418615
vt 0.3125 0.8698508118581605
vt 0.3125 0.9375
vt 0.375 0.9374999999999969
vt 0.375 0.8857249999999968
vt 0.3125 0.9116124999999968
vt 0.3642750000000032 0.9375
vt 0.3642750000000032 0.875
vt 0.31250000000000316 0.875
vt 0.31250000000000316 0.9375
vt 0.375 0.9374999999999969
vt 0.375 0.8857249999999968
vt 0.3125 0.9116124999999968
vt 0.3603363071699386 0.8896659078418615
vt 0.3125 0.8698508118581605
vt 0.3125 0.9375
vt 0.3642750000000032 0.9375
vt 0.3642750000000032 0.875
vt 0.31250000000000316 0.875
vt 0.31250000000000316 0.9375
vt 0.3603340921581385 0.9375
vt 0.3801491881418395 0.8896636928300614
vt 0.3125 0.8896636928300614
vt 0.3642750000000032 0.875
vt 0.31250000000000316 0.875
vt 0.33838750000000317 0.9375
vt 0.3642750000000032 0.9375
vt 0.3642750000000032 0.875
vt 0.31250000000000316 0.875
vt 0.31250000000000316 0.9375
vt 0.31250000000000316 0.9375
vt 0.3642750000000032 0.9375
vt 0.33838750000000317 0.875
vt 0.33231509598370434 0.8896636928300614
vt 0.31250000000000333 0.9375
vt 0.38014918814184284 0.9375
vt 0.3642750000000032 0.9375
vt 0.3642750000000032 0.875
vt 0.31250000000000316 0.875
vt 0.31250000000000316 0.9375
vt 0.3125 0.9176849040162957
vt 0.3603363071699386 0.9374999999999967
vt 0.3603363071699386 0.8698508118581572
vt 0.3125 0.8857249999999968
vt 0.3125 0.9374999999999969
vt 0.375 0.9116124999999968
vt 0.3642750000000032 0.9375
vt 0.3642750000000032 0.875
vt 0.31250000000000316 0.875
vt 0.31250000000000316 0.9375
vt 0.3125 0.8857249999999968
vt 0.3125 0.9374999999999969
vt 0.375 0.9116124999999968
vt 0.3125 0.9176849040162957
vt 0.3603363071699386 0.9374999999999967
vt 0.3603363071699386 0.8698508118581572
vt 0.3642750000000032 0.9375
vt 0.3642750000000032 0.875
vt 0.31250000000000316 0.875
vt 0.31250000000000316 0.9375
vt 0.33231509598370434 0.8896636928300614
vt 0.31250000000000333 0.9375
vt 0.38014918814184284 0.9375
vt 0.31250000000000316 0.9375
vt 0.3642750000000032 0.9375
vt 0.33838750000000317 0.875
vt 0.3642750000000032 0.9375
vt 0.3642750000000032 0.875
vt 0.31250000000000316 0.875
vt 0.31250000000000316 0.9375
vt 0.3642750000000032 0.875
vt 0.31250000000000316 0.875
vt 0.33838750000000317 0.9375
vn 0 -2.220446049250313e-16 -1
vn -0.7071067811865476 -0.7071067811865476 1.5700924586837752e-16
vn 0 2.220446049250313e-16 1
vn 0 -2.220446049250313e-16 -1
vn -1 0 0
vn 0 2.220446049250313e-16 1
vn 0 -2.220446049250313e-16 -1
vn -0.7071067811865476 0.7071067811865475 -1.570092458683775e-16
vn 0 2.220446049250313e-16 1
vn 0 -2.220446049250313e-16 -1
vn -2.6803154833089315e-16 1 -2.220446049250313e-16
vn 0 2.220446049250313e-16 1
vn 0 -2.220446049250313e-16 -1
vn 0.7071067811865474 0.7071067811865477 -1.5700924586837754e-16
vn 0 2.220446049250313e-16 1
vn 0 -2.220446049250313e-16 -1
vn 1 1.3401577416544645e-16 -2.9757479628288774e-32
vn 0 2.220446049250313e-16 1
vn 0 -2.220446049250313e-16 -1
vn 0.7071067811865477 -0.7071067811865474 1.5700924586837747e-16
vn 0 2.220446049250313e-16 1
vn 0 -2.220446049250313e-16 -1
vn 2.680315483308929e-16 -1 2.220446049250313e-16
vn 0 2.220446049250313e-16 1
usemtl m_9d090a16-2a91-371d-ff98-56451cdd0852
f 57/241/73 59/242/73 55/243/73
f 60/244/74 59/245/74 57/246/74 58/247/74
f 60/248/75 58/249/75 56/250/75
f 59/251/76 61/252/76 55/253/76
f 62/254/77 61/255/77 59/256/77 60/257/77
f 62/258/78 60/259/78 56/260/78
f 61/261/79 63/262/79 55/263/79
f 64/264/80 63/265/80 61/266/80 62/267/80
f 64/268/81 62/269/81 56/270/81
f 63/271/82 65/272/82 55/273/82
f 66/274/83 65/275/83 63/276/83 64/277/83
f 66/278/84 64/279/84 56/280/84
f 65/281/85 67/282/85 55/283/85
f 68/284/86 67/285/86 65/286/86 66/287/86
f 68/288/87 66/289/87 56/290/87
f 67/291/88 69/292/88 55/293/88
f 70/294/89 69/295/89 67/296/89 68/297/89
f 70/298/90 68/299/90 56/300/90
f 69/301/91 71/302/91 55/303/91
f 72/304/92 71/305/92 69/306/92 70/307/92
f 72/308/93 70/309/93 56/310/93
f 71/311/94 57/312/94 55/313/94
f 58/314/95 57/315/95 71/316/95 72/317/95
f 58/318/96 72/319/96 56/320/96