# Made in Blockbench 4.10.3
mtllib trucklight_america1.mtl

o cuboid
v -0.3125 0.140625 0.04765625000000018
v -0.3125 0.140625 -0.04609374999999982
v -0.3125 -0.140625 0.04765625000000018
v -0.3125 -0.140625 -0.04609374999999982
v -0.46875 0.140625 0.04765625000000018
v -0.46875 0.140625 -0.04609374999999982
v -0.46875 -0.140625 0.04765625000000018
v -0.46875 -0.140625 -0.04609374999999982
v -0.3125 -0.125 0.04609374999999982
v -0.3125 -0.125 -0.04765625000000018
v -0.296875 -0.109375 0.04609374999999982
v -0.296875 -0.109375 -0.04765625000000018
v -0.46875 -0.125 0.04609374999999982
v -0.46875 -0.125 -0.04765625000000018
v -0.484375 -0.109375 0.04609374999999982
v -0.484375 -0.109375 -0.04765625000000018
v -0.296875 -0.0625 0.04609374999999982
v -0.296875 -0.0625 -0.04765625000000018
v -0.296875 -0.109375 0.04609374999999982
v -0.296875 -0.109375 -0.04765625000000018
v -0.3125 -0.0625 0.04609374999999982
v -0.3125 -0.0625 -0.04765625000000018
v -0.3125 -0.109375 0.04609374999999982
v -0.3125 -0.109375 -0.04765625000000018
v -0.46875 -0.0625 0.04609374999999982
v -0.46875 -0.0625 -0.04765625000000018
v -0.46875 -0.109375 0.04609374999999982
v -0.46875 -0.109375 -0.04765625000000018
v -0.484375 -0.0625 0.04609374999999982
v -0.484375 -0.0625 -0.04765625000000018
v -0.484375 -0.109375 0.04609374999999982
v -0.484375 -0.109375 -0.04765625000000018
v 0.296875 -0.0625 0.04609374999999982
v 0.296875 -0.0625 -0.04765625000000018
v 0.296875 -0.109375 0.04609374999999982
v 0.296875 -0.109375 -0.04765625000000018
v 0.3125 -0.0625 0.04609374999999982
v 0.3125 -0.0625 -0.04765625000000018
v 0.3125 -0.109375 0.04609374999999982
v 0.3125 -0.109375 -0.04765625000000018
v 0.3125 -0.125 0.04609374999999982
v 0.3125 -0.125 -0.04765625000000018
v 0.296875 -0.109375 0.04609374999999982
v 0.296875 -0.109375 -0.04765625000000018
v 0.46875 -0.125 0.04609374999999982
v 0.46875 -0.125 -0.04765625000000018
v 0.484375 -0.109375 0.04609374999999982
v 0.484375 -0.109375 -0.04765625000000018
v 0.46875 -0.0625 0.04609374999999982
v 0.46875 -0.0625 -0.04765625000000018
v 0.46875 -0.109375 0.04609374999999982
v 0.46875 -0.109375 -0.04765625000000018
v 0.484375 -0.0625 0.04609374999999982
v 0.484375 -0.0625 -0.04765625000000018
v 0.484375 -0.109375 0.04609374999999982
v 0.484375 -0.109375 -0.04765625000000018
v -0.46875 0.140625 0.04765625000000018
v -0.46875 0.140625 -0.04609374999999982
v -0.46875 -0.140625 0.04765625000000018
v -0.46875 -0.140625 -0.04609374999999982
v -0.5 0.109375 0.04765625000000018
v -0.5 0.109375 -0.04609374999999982
v -0.5 -0.109375 0.04765625000000018
v -0.5 -0.109375 -0.04609374999999982
v -0.3125 0.140625 0.04765625000000018
v -0.3125 0.140625 -0.04609374999999982
v -0.3125 -0.140625 0.04765625000000018
v -0.3125 -0.140625 -0.04609374999999982
v -0.28125 0.109375 0.04765625000000018
v -0.28125 0.109375 -0.04609374999999982
v -0.28125 -0.109375 0.04765625000000018
v -0.28125 -0.109375 -0.04609374999999982
v 0.3125 0.140625 0.04765625000000018
v 0.3125 0.140625 -0.04609374999999982
v 0.3125 -0.140625 0.04765625000000018
v 0.3125 -0.140625 -0.04609374999999982
v 0.28125 0.109375 0.04765625000000018
v 0.28125 0.109375 -0.04609374999999982
v 0.28125 -0.109375 0.04765625000000018
v 0.28125 -0.109375 -0.04609374999999982
v 0.46875 0.140625 0.04765625000000018
v 0.46875 0.140625 -0.04609374999999982
v 0.46875 -0.140625 0.04765625000000018
v 0.46875 -0.140625 -0.04609374999999982
v 0.5 0.109375 0.04765625000000018
v 0.5 0.109375 -0.04609374999999982
v 0.5 -0.109375 0.04765625000000018
v 0.5 -0.109375 -0.04609374999999982
v 0.3125 0.140625 0.04765625000000018
v 0.3125 0.140625 -0.04609374999999982
v 0.3125 -0.140625 0.04765625000000018
v 0.3125 -0.140625 -0.04609374999999982
v 0.46875 0.140625 0.04765625000000018
v 0.46875 0.140625 -0.04609374999999982
v 0.46875 -0.140625 0.04765625000000018
v 0.46875 -0.140625 -0.04609374999999982
vt 0.109375 0.8125
vt 0.078125 0.8125
vt 0.078125 0.734375
vt 0.109375 0.734375
vt 0.15625 0.734375
vt 0.15625 0.8125
vt 0.125 0.8125
vt 0.125 0.734375
vt 0.328125 0.875
vt 0.375 0.875
vt 0.375 0.90625
vt 0.328125 0.90625
vt 0.375 0.828125
vt 0.375 0.859375
vt 0.328125 0.859375
vt 0.328125 0.828125
vt 0.046875 0.921875
vt 0.046875 1
vt 0 1
vt 0 0.921875
vt 0.109375 1
vt 0.0625 1
vt 0.0625 0.921875
vt 0.109375 0.921875
vt 0.4375 0.609375
vt 0.4375 0.59375
vt 0.46875 0.59375
vt 0.46875 0.609375
vt 0.4375 0.5625
vt 0.46875 0.5625
vt 0.46875 0.578125
vt 0.4375 0.578125
vt 0.390625 0.78125
vt 0.390625 0.8125
vt 0.34375 0.8125
vt 0.34375 0.78125
vt 0.265625 0.734375
vt 0.328125 0.734375
vt 0.328125 0.765625
vt 0.265625 0.765625
vt 0.41015625 0.78125
vt 0.45703125 0.78125
vt 0.4609375 0.796875
vt 0.40625 0.796875
vt 0.40625 0.765625
vt 0.41015625 0.75
vt 0.45703125 0.75
vt 0.4609375 0.765625
vt 0.484375 0.90625
vt 0.453125 0.90625
vt 0.453125 0.890625
vt 0.484375 0.890625
vt 0.15625 0.53125
vt 0.15625 0.546875
vt 0.125 0.546875
vt 0.125 0.53125
vt 0.203125 0.546875
vt 0.21875 0.546875
vt 0.21875 0.578125
vt 0.203125 0.578125
vt 0.1875 0.515625
vt 0.1875 0.546875
vt 0.171875 0.546875
vt 0.171875 0.515625
vt 0.0625 0.734375
vt 0.0625 0.75
vt 0.046875 0.75
vt 0.046875 0.734375
vt 0.1875 0.5
vt 0.171875 0.5
vt 0.171875 0.484375
vt 0.1875 0.484375
vt 0.40625 0.546875
vt 0.375 0.546875
vt 0.375 0.53125
vt 0.40625 0.53125
vt 0.453125 0.53125
vt 0.453125 0.546875
vt 0.421875 0.546875
vt 0.421875 0.53125
vt 0.46875 0.84375
vt 0.484375 0.84375
vt 0.484375 0.875
vt 0.46875 0.875
vt 0.21875 0.5
vt 0.21875 0.53125
vt 0.203125 0.53125
vt 0.203125 0.5
vt 0.515625 0.65625
vt 0.515625 0.671875
vt 0.5 0.671875
vt 0.5 0.65625
vt 0.125 0.484375
vt 0.109375 0.484375
vt 0.109375 0.46875
vt 0.125 0.46875
vt 0.453125 0.890625
vt 0.453125 0.90625
vt 0.484375 0.90625
vt 0.484375 0.890625
vt 0.125 0.546875
vt 0.15625 0.546875
vt 0.15625 0.53125
vt 0.125 0.53125
vt 0.21875 0.578125
vt 0.21875 0.546875
vt 0.203125 0.546875
vt 0.203125 0.578125
vt 0.171875 0.546875
vt 0.1875 0.546875
vt 0.1875 0.515625
vt 0.171875 0.515625
vt 0.046875 0.75
vt 0.0625 0.75
vt 0.0625 0.734375
vt 0.046875 0.734375
vt 0.171875 0.484375
vt 0.171875 0.5
vt 0.1875 0.5
vt 0.1875 0.484375
vt 0.46875 0.59375
vt 0.4375 0.59375
vt 0.4375 0.609375
vt 0.46875 0.609375
vt 0.46875 0.578125
vt 0.46875 0.5625
vt 0.4375 0.5625
vt 0.4375 0.578125
vt 0.34375 0.8125
vt 0.390625 0.8125
vt 0.390625 0.78125
vt 0.34375 0.78125
vt 0.328125 0.765625
vt 0.328125 0.734375
vt 0.265625 0.734375
vt 0.265625 0.765625
vt 0.4609375 0.796875
vt 0.45703125 0.78125
vt 0.41015625 0.78125
vt 0.40625 0.796875
vt 0.45703125 0.75
vt 0.41015625 0.75
vt 0.40625 0.765625
vt 0.4609375 0.765625
vt 0.375 0.53125
vt 0.375 0.546875
vt 0.40625 0.546875
vt 0.40625 0.53125
vt 0.421875 0.546875
vt 0.453125 0.546875
vt 0.453125 0.53125
vt 0.421875 0.53125
vt 0.484375 0.875
vt 0.484375 0.84375
vt 0.46875 0.84375
vt 0.46875 0.875
vt 0.203125 0.53125
vt 0.21875 0.53125
vt 0.21875 0.5
vt 0.203125 0.5
vt 0.5 0.671875
vt 0.515625 0.671875
vt 0.515625 0.65625
vt 0.5 0.65625
vt 0.109375 0.46875
vt 0.109375 0.484375
vt 0.125 0.484375
vt 0.125 0.46875
vt 0.203125 0.8125
vt 0.171875 0.8125
vt 0.171875 0.734375
vt 0.203125 0.734375
vt 0.078125 0.65625
vt 0.078125 0.71875
vt 0.046875 0.71875
vt 0.046875 0.65625
vt 0.15625 0.5
vt 0.15625 0.515625
vt 0.125 0.515625
vt 0.125 0.5
vt 0.484375 0.8125
vt 0.515625 0.8125
vt 0.515625 0.828125
vt 0.484375 0.828125
vt 0.25 0.53125
vt 0.25 0.609375
vt 0.234375 0.6015625
vt 0.234375 0.5390625
vt 0.28125 0.6015625
vt 0.265625 0.609375
vt 0.265625 0.53125
vt 0.28125 0.5390625
vt 0.234375 0.921875
vt 0.234375 1
vt 0.203125 1
vt 0.203125 0.921875
vt 0.125 0.71875
vt 0.09375 0.71875
vt 0.09375 0.65625
vt 0.125 0.65625
vt 0.515625 0.796875
vt 0.484375 0.796875
vt 0.484375 0.78125
vt 0.515625 0.78125
vt 0.234375 0.515625
vt 0.234375 0.5
vt 0.265625 0.5
vt 0.265625 0.515625
vt 0.40625 0.7109375
vt 0.390625 0.71875
vt 0.390625 0.640625
vt 0.40625 0.6484375
vt 0.3125 0.53125
vt 0.3125 0.609375
vt 0.296875 0.6015625
vt 0.296875 0.5390625
vt 0.234375 0.90625
vt 0.203125 0.90625
vt 0.203125 0.828125
vt 0.234375 0.828125
vt 0.171875 0.65625
vt 0.171875 0.71875
vt 0.140625 0.71875
vt 0.140625 0.65625
vt 0.515625 0.75
vt 0.515625 0.765625
vt 0.484375 0.765625
vt 0.484375 0.75
vt 0.28125 0.5
vt 0.3125 0.5
vt 0.3125 0.515625
vt 0.28125 0.515625
vt 0.015625 0.515625
vt 0.015625 0.59375
vt 0 0.5859375
vt 0 0.5234375
vt 0.046875 0.5859375
vt 0.03125 0.59375
vt 0.03125 0.515625
vt 0.046875 0.5234375
vt 0.25 0.734375
vt 0.25 0.8125
vt 0.21875 0.8125
vt 0.21875 0.734375
vt 0.21875 0.71875
vt 0.1875 0.71875
vt 0.1875 0.65625
vt 0.21875 0.65625
vt 0.515625 0.640625
vt 0.484375 0.640625
vt 0.484375 0.625
vt 0.515625 0.625
vt 0.375 0.515625
vt 0.375 0.5
vt 0.40625 0.5
vt 0.40625 0.515625
vt 0.078125 0.5859375
vt 0.0625 0.59375
vt 0.0625 0.515625
vt 0.078125 0.5234375
vt 0.109375 0.515625
vt 0.109375 0.59375
vt 0.09375 0.5859375
vt 0.09375 0.5234375
vt 0.03125 0.671875
vt 0.03125 0.75
vt 0 0.75
vt 0 0.671875
vt 0.28125 1
vt 0.25 1
vt 0.25 0.921875
vt 0.28125 0.921875
vt 0.375 0.625
vt 0.375 0.59375
vt 0.421875 0.59375
vt 0.421875 0.625
vt 0.4375 0.90625
vt 0.390625 0.90625
vt 0.390625 0.875
vt 0.4375 0.875
vt 0.046875 0.90625
vt 0 0.90625
vt 0 0.828125
vt 0.046875 0.828125
vt 0.109375 0.828125
vt 0.109375 0.90625
vt 0.0625 0.90625
vt 0.0625 0.828125
vn 1 0 0
vn -1 0 0
vn 0 1 0
vn 0 -1 0
vn 0 0 1
vn 0 0 -1
vn 0.7071067811865476 -0.7071067811865476 0
vn -0.7071067811865476 -0.7071067811865476 0
vn 0 -1 0
vn 0 1 0
vn 0 0 1
vn 0 0 -1
vn 1 0 0
vn -1 0 0
vn 0 1 0
vn 0 -1 0
vn 0 0 1
vn 0 0 -1
vn 1 0 0
vn -1 0 0
vn 0 1 0
vn 0 -1 0
vn 0 0 1
vn 0 0 -1
vn -1 0 0
vn 1 0 0
vn 0 1 0
vn 0 -1 0
vn 0 0 1
vn 0 0 -1
vn -0.7071067811865476 -0.7071067811865476 0
vn 0.7071067811865476 -0.7071067811865476 0
vn 0 -1 0
vn 0 1 0
vn 0 0 1
vn 0 0 -1
vn -1 0 0
vn 1 0 0
vn 0 1 0
vn 0 -1 0
vn 0 0 1
vn 0 0 -1
vn 1 0 0
vn -1 0 0
vn -0.7071067811865476 0.7071067811865476 0
vn -0.7071067811865476 -0.7071067811865476 0
vn 0 0 1
vn 0 0 -1
vn -1 0 0
vn 1 0 0
vn 0.7071067811865476 0.7071067811865476 0
vn 0.7071067811865476 -0.7071067811865476 0
vn 0 0 1
vn 0 0 -1
vn 1 0 0
vn -1 0 0
vn -0.7071067811865476 0.7071067811865476 0
vn -0.7071067811865476 -0.7071067811865476 0
vn 0 0 1
vn 0 0 -1
vn -1 0 0
vn 1 0 0
vn 0.7071067811865476 0.7071067811865476 0
vn 0.7071067811865476 -0.7071067811865476 0
vn 0 0 1
vn 0 0 -1
vn -1 0 0
vn 1 0 0
vn 0 1 0
vn 0 -1 0
vn 0 0 1
vn 0 0 -1
usemtl m_408577fa-cf65-33db-a4c3-15775deb244a
f 2/1/1 1/2/1 3/3/1 4/4/1
f 7/5/2 5/6/2 6/7/2 8/8/2
f 5/9/3 1/10/3 2/11/3 6/12/3
f 4/13/4 3/14/4 7/15/4 8/16/4
f 3/17/5 1/18/5 5/19/5 7/20/5
f 6/21/6 2/22/6 4/23/6 8/24/6
f 11/25/7 9/26/7 10/27/7 12/28/7
f 14/29/8 13/30/8 15/31/8 16/32/8
f 10/33/9 9/34/9 13/35/9 14/36/9
f 15/37/10 11/38/10 12/39/10 16/40/10
f 13/41/11 9/42/11 11/43/11 15/44/11
f 12/45/12 10/46/12 14/47/12 16/48/12
f 18/49/13 17/50/13 19/51/13 20/52/13
f 23/53/14 21/54/14 22/55/14 24/56/14
f 21/57/15 17/58/15 18/59/15 22/60/15
f 20/61/16 19/62/16 23/63/16 24/64/16
f 19/65/17 17/66/17 21/67/17 23/68/17
f 22/69/18 18/70/18 20/71/18 24/72/18
f 26/73/19 25/74/19 27/75/19 28/76/19
f 31/77/20 29/78/20 30/79/20 32/80/20
f 29/81/21 25/82/21 26/83/21 30/84/21
f 28/85/22 27/86/22 31/87/22 32/88/22
f 27/89/23 25/90/23 29/91/23 31/92/23
f 30/93/24 26/94/24 28/95/24 32/96/24
f 35/97/25 33/98/25 34/99/25 36/100/25
f 38/101/26 37/102/26 39/103/26 40/104/26
f 34/105/27 33/106/27 37/107/27 38/108/27
f 39/109/28 35/110/28 36/111/28 40/112/28
f 37/113/29 33/114/29 35/115/29 39/116/29
f 36/117/30 34/118/30 38/119/30 40/120/30
f 42/121/31 41/122/31 43/123/31 44/124/31
f 47/125/32 45/126/32 46/127/32 48/128/32
f 45/129/33 41/130/33 42/131/33 46/132/33
f 44/133/34 43/134/34 47/135/34 48/136/34
f 43/137/35 41/138/35 45/139/35 47/140/35
f 46/141/36 42/142/36 44/143/36 48/144/36
f 51/145/37 49/146/37 50/147/37 52/148/37
f 54/149/38 53/150/38 55/151/38 56/152/38
f 50/153/39 49/154/39 53/155/39 54/156/39
f 55/157/40 51/158/40 52/159/40 56/160/40
f 53/161/41 49/162/41 51/163/41 55/164/41
f 52/165/42 50/166/42 54/167/42 56/168/42
f 58/169/43 57/170/43 59/171/43 60/172/43
f 63/173/44 61/174/44 62/175/44 64/176/44
f 61/177/45 57/178/45 58/179/45 62/180/45
f 60/181/46 59/182/46 63/183/46 64/184/46
f 59/185/47 57/186/47 61/187/47 63/188/47
f 62/189/48 58/190/48 60/191/48 64/192/48
f 67/193/49 65/194/49 66/195/49 68/196/49
f 70/197/50 69/198/50 71/199/50 72/200/50
f 66/201/51 65/202/51 69/203/51 70/204/51
f 71/205/52 67/206/52 68/207/52 72/208/52
f 69/209/53 65/210/53 67/211/53 71/212/53
f 68/213/54 66/214/54 70/215/54 72/216/54
f 74/217/55 73/218/55 75/219/55 76/220/55
f 79/221/56 77/222/56 78/223/56 80/224/56
f 77/225/57 73/226/57 74/227/57 78/228/57
f 76/229/58 75/230/58 79/231/58 80/232/58
f 75/233/59 73/234/59 77/235/59 79/236/59
f 78/237/60 74/238/60 76/239/60 80/240/60
f 83/241/61 81/242/61 82/243/61 84/244/61
f 86/245/62 85/246/62 87/247/62 88/248/62
f 82/249/63 81/250/63 85/251/63 86/252/63
f 87/253/64 83/254/64 84/255/64 88/256/64
f 85/257/65 81/258/65 83/259/65 87/260/65
f 84/261/66 82/262/66 86/263/66 88/264/66
f 91/265/67 89/266/67 90/267/67 92/268/67
f 94/269/68 93/270/68 95/271/68 96/272/68
f 90/273/69 89/274/69 93/275/69 94/276/69
f 95/277/70 91/278/70 92/279/70 96/280/70
f 93/281/71 89/282/71 91/283/71 95/284/71
f 92/285/72 90/286/72 94/287/72 96/288/72
o &brakelightright
v -0.296875 0.109375 0.04609374999999982
v -0.296875 0.109375 -0.04765625000000018
v -0.296875 -0.0625 0.04609374999999982
v -0.296875 -0.0625 -0.04765625000000018
v -0.484375 0.109375 0.04609374999999982
v -0.484375 0.109375 -0.04765625000000018
v -0.484375 -0.0625 0.04609374999999982
v -0.484375 -0.0625 -0.04765625000000018
v -0.3125 0.125 0.04609374999999982
v -0.3125 0.125 -0.04765625000000018
v -0.296875 0.109375 0.04609374999999982
v -0.296875 0.109375 -0.04765625000000018
v -0.46875 0.125 0.04609374999999982
v -0.46875 0.125 -0.04765625000000018
v -0.484375 0.109375 0.04609374999999982
v -0.484375 0.109375 -0.04765625000000018
vt 0.265625 0.671875
vt 0.234375 0.671875
vt 0.234375 0.625
vt 0.265625 0.625
vt 0.3125 0.625
vt 0.3125 0.671875
vt 0.28125 0.671875
vt 0.28125 0.625
vt 0.25 0.875
vt 0.3125 0.875
vt 0.3125 0.90625
vt 0.25 0.90625
vt 0.3125 0.828125
vt 0.3125 0.859375
vt 0.25 0.859375
vt 0.25 0.828125
vt 0.1875 0.953125
vt 0.1875 1
vt 0.125 1
vt 0.125 0.953125
vt 0.1875 0.9375
vt 0.125 0.9375
vt 0.125 0.890625
vt 0.1875 0.890625
vt 0.359375 0.5625
vt 0.328125 0.5625
vt 0.328125 0.546875
vt 0.359375 0.546875
vt 0.46875 0.625
vt 0.46875 0.640625
vt 0.4375 0.640625
vt 0.4375 0.625
vt 0.328125 0.640625
vt 0.375 0.640625
vt 0.375 0.671875
vt 0.328125 0.671875
vt 0.328125 0.78125
vt 0.328125 0.8125
vt 0.265625 0.8125
vt 0.265625 0.78125
vt 0.4453125 0.84375
vt 0.44140625 0.859375
vt 0.39453125 0.859375
vt 0.390625 0.84375
vt 0.45703125 0.828125
vt 0.41015625 0.828125
vt 0.40625 0.8125
vt 0.4609375 0.8125
vn 1 0 0
vn -1 0 0
vn 0 1 0
vn 0 -1 0
vn 0 0 1
vn 0 0 -1
vn 0.7071067811865476 0.7071067811865476 0
vn -0.7071067811865476 0.7071067811865476 0
vn 0 1 0
vn 0 -1 0
vn 0 0 1
vn 0 0 -1
usemtl m_408577fa-cf65-33db-a4c3-15775deb244a
f 98/289/73 97/290/73 99/291/73 100/292/73
f 103/293/74 101/294/74 102/295/74 104/296/74
f 101/297/75 97/298/75 98/299/75 102/300/75
f 100/301/76 99/302/76 103/303/76 104/304/76
f 99/305/77 97/306/77 101/307/77 103/308/77
f 102/309/78 98/310/78 100/311/78 104/312/78
f 106/313/79 105/314/79 107/315/79 108/316/79
f 111/317/80 109/318/80 110/319/80 112/320/80
f 109/321/81 105/322/81 106/323/81 110/324/81
f 108/325/82 107/326/82 111/327/82 112/328/82
f 107/329/83 105/330/83 109/331/83 111/332/83
f 110/333/84 106/334/84 108/335/84 112/336/84
o &brakelightleft
v 0.296875 0.109375 0.04609374999999982
v 0.296875 0.109375 -0.04765625000000018
v 0.296875 -0.0625 0.04609374999999982
v 0.296875 -0.0625 -0.04765625000000018
v 0.484375 0.109375 0.04609374999999982
v 0.484375 0.109375 -0.04765625000000018
v 0.484375 -0.0625 0.04609374999999982
v 0.484375 -0.0625 -0.04765625000000018
v 0.3125 0.125 0.04609374999999982
v 0.3125 0.125 -0.04765625000000018
v 0.296875 0.109375 0.04609374999999982
v 0.296875 0.109375 -0.04765625000000018
v 0.46875 0.125 0.04609374999999982
v 0.46875 0.125 -0.04765625000000018
v 0.484375 0.109375 0.04609374999999982
v 0.484375 0.109375 -0.04765625000000018
vt 0.234375 0.625
vt 0.234375 0.671875
vt 0.265625 0.671875
vt 0.265625 0.625
vt 0.28125 0.671875
vt 0.3125 0.671875
vt 0.3125 0.625
vt 0.28125 0.625
vt 0.3125 0.90625
vt 0.3125 0.875
vt 0.25 0.875
vt 0.25 0.90625
vt 0.25 0.859375
vt 0.3125 0.859375
vt 0.3125 0.828125
vt 0.25 0.828125
vt 0.125 1
vt 0.1875 1
vt 0.1875 0.953125
vt 0.125 0.953125
vt 0.125 0.890625
vt 0.125 0.9375
vt 0.1875 0.9375
vt 0.1875 0.890625
vt 0.328125 0.546875
vt 0.328125 0.5625
vt 0.359375 0.5625
vt 0.359375 0.546875
vt 0.4375 0.640625
vt 0.46875 0.640625
vt 0.46875 0.625
vt 0.4375 0.625
vt 0.375 0.671875
vt 0.375 0.640625
vt 0.328125 0.640625
vt 0.328125 0.671875
vt 0.265625 0.8125
vt 0.328125 0.8125
vt 0.328125 0.78125
vt 0.265625 0.78125
vt 0.39453125 0.859375
vt 0.44140625 0.859375
vt 0.4453125 0.84375
vt 0.390625 0.84375
vt 0.40625 0.8125
vt 0.41015625 0.828125
vt 0.45703125 0.828125
vt 0.4609375 0.8125
vn -1 0 0
vn 1 0 0
vn 0 1 0
vn 0 -1 0
vn 0 0 1
vn 0 0 -1
vn -0.7071067811865476 0.7071067811865476 0
vn 0.7071067811865476 0.7071067811865476 0
vn 0 1 0
vn 0 -1 0
vn 0 0 1
vn 0 0 -1
usemtl m_408577fa-cf65-33db-a4c3-15775deb244a
f 115/337/85 113/338/85 114/339/85 116/340/85
f 118/341/86 117/342/86 119/343/86 120/344/86
f 114/345/87 113/346/87 117/347/87 118/348/87
f 119/349/88 115/350/88 116/351/88 120/352/88
f 117/353/89 113/354/89 115/355/89 119/356/89
f 116/357/90 114/358/90 118/359/90 120/360/90
f 123/361/91 121/362/91 122/363/91 124/364/91
f 126/365/92 125/366/92 127/367/92 128/368/92
f 122/369/93 121/370/93 125/371/93 126/372/93
f 127/373/94 123/374/94 124/375/94 128/376/94
f 125/377/95 121/378/95 123/379/95 127/380/95
f 124/381/96 122/382/96 126/383/96 128/384/96
o &reverselight
v 0.3125 -0.0625 0.04609374999999982
v 0.3125 -0.0625 -0.04765625000000018
v 0.3125 -0.109375 0.04609374999999982
v 0.3125 -0.109375 -0.04765625000000018
v 0.46875 -0.0625 0.04609374999999982
v 0.46875 -0.0625 -0.04765625000000018
v 0.46875 -0.109375 0.04609374999999982
v 0.46875 -0.109375 -0.04765625000000018
v -0.3125 -0.0625 0.04609374999999982
v -0.3125 -0.0625 -0.04765625000000018
v -0.3125 -0.109375 0.04609374999999982
v -0.3125 -0.109375 -0.04765625000000018
v -0.46875 -0.0625 0.04609374999999982
v -0.46875 -0.0625 -0.04765625000000018
v -0.46875 -0.109375 0.04609374999999982
v -0.46875 -0.109375 -0.04765625000000018
vt 0.515625 0.59375
vt 0.515625 0.609375
vt 0.484375 0.609375
vt 0.484375 0.59375
vt 0.453125 0.515625
vt 0.421875 0.515625
vt 0.421875 0.5
vt 0.453125 0.5
vt 0.0625 0.640625
vt 0.0625 0.609375
vt 0.109375 0.609375
vt 0.109375 0.640625
vt 0.171875 0.640625
vt 0.125 0.640625
vt 0.125 0.609375
vt 0.171875 0.609375
vt 0.484375 0.96875
vt 0.4375 0.96875
vt 0.4375 0.953125
vt 0.484375 0.953125
vt 0.484375 0.921875
vt 0.484375 0.9375
vt 0.4375 0.9375
vt 0.4375 0.921875
vt 0.359375 0.53125
vt 0.328125 0.53125
vt 0.328125 0.515625
vt 0.359375 0.515625
vt 0.5 0.53125
vt 0.5 0.546875
vt 0.46875 0.546875
vt 0.46875 0.53125
vt 0.34375 0.734375
vt 0.390625 0.734375
vt 0.390625 0.765625
vt 0.34375 0.765625
vt 0.046875 0.609375
vt 0.046875 0.640625
vt 0 0.640625
vt 0 0.609375
vt 0.421875 0.5625
vt 0.421875 0.578125
vt 0.375 0.578125
vt 0.375 0.5625
vt 0.484375 1
vt 0.4375 1
vt 0.4375 0.984375
vt 0.484375 0.984375
vn -1 0 0
vn 1 0 0
vn 0 1 0
vn 0 -1 0
vn 0 0 1
vn 0 0 -1
vn 1 0 0
vn -1 0 0
vn 0 1 0
vn 0 -1 0
vn 0 0 1
vn 0 0 -1
usemtl m_408577fa-cf65-33db-a4c3-15775deb244a
f 131/385/97 129/386/97 130/387/97 132/388/97
f 134/389/98 133/390/98 135/391/98 136/392/98
f 130/393/99 129/394/99 133/395/99 134/396/99
f 135/397/100 131/398/100 132/399/100 136/400/100
f 133/401/101 129/402/101 131/403/101 135/404/101
f 132/405/102 130/406/102 134/407/102 136/408/102
f 138/409/103 137/410/103 139/411/103 140/412/103
f 143/413/104 141/414/104 142/415/104 144/416/104
f 141/417/105 137/418/105 138/419/105 142/420/105
f 140/421/106 139/422/106 143/423/106 144/424/106
f 139/425/107 137/426/107 141/427/107 143/428/107
f 142/429/108 138/430/108 140/431/108 144/432/108