# Made in Blockbench 4.10.2
mtllib msb_end.mtl

o cuboid
v -0.625 0.1875 -1.15625
v -0.625 0.1875 -1.34375
v -0.625 0.171875 -1.15625
v -0.625 0.171875 -1.34375
v -0.375 0.1875 -1.15625
v -0.375 0.1875 -1.34375
v -0.375 0.171875 -1.15625
v -0.375 0.171875 -1.34375
vt 0.84375 0.90625
vt 0.84375 0.9375
vt 0.75 0.9375
vt 0.75 0.90625
vt 0.84375 0.875
vt 0.75 0.875
vt 0.75 0.84375
vt 0.84375 0.84375
vt 0.25 1
vt 0.25 0.90625
vt 0.375 0.90625
vt 0.375 1
vt 0.375 0.875
vt 0.25 0.875
vt 0.25 0.78125
vt 0.375 0.78125
vt 0.59375 0.90625
vt 0.46875 0.90625
vt 0.46875 0.875
vt 0.59375 0.875
vt 0.59375 0.8125
vt 0.59375 0.84375
vt 0.46875 0.84375
vt 0.46875 0.8125
vn -1 0 0
vn 1 0 0
vn 0 1 0
vn 0 -1 0
vn 0 0 1
vn 0 0 -1
usemtl m_42abda02-b9a4-a225-20a9-c8924d595b7f
f 3/1/1 1/2/1 2/3/1 4/4/1
f 6/5/2 5/6/2 7/7/2 8/8/2
f 2/9/3 1/10/3 5/11/3 6/12/3
f 7/13/4 3/14/4 4/15/4 8/16/4
f 5/17/5 1/18/5 3/19/5 7/20/5
f 4/21/6 2/22/6 6/23/6 8/24/6
o cuboid
v -0.625 0.25 -1.15625
v -0.625 0.25 -1.234375
v -0.625 0.1875 -1.15625
v -0.625 0.1875 -1.234375
v -0.375 0.25 -1.15625
v -0.375 0.25 -1.234375
v -0.375 0.1875 -1.15625
v -0.375 0.1875 -1.234375
vt 0.03125 0.125
vt 0.03125 0.15625
vt 0 0.15625
vt 0 0.125
vt 0.09375 0.15625
vt 0.0625 0.15625
vt 0.0625 0.125
vt 0.09375 0.125
vt 0 0.5
vt 0 0.46875
vt 0.125 0.46875
vt 0.125 0.5
vt 0.625 0.5625
vt 0.5 0.5625
vt 0.5 0.53125
vt 0.625 0.53125
vt 0.625 0.5
vt 0.5 0.5
vt 0.5 0.46875
vt 0.625 0.46875
vt 0.125 0.40625
vt 0.125 0.4375
vt 0 0.4375
vt 0 0.40625
vn -1 0 0
vn 1 0 0
vn 0 1 0
vn 0 -1 0
vn 0 0 1
vn 0 0 -1
usemtl m_42abda02-b9a4-a225-20a9-c8924d595b7f
f 11/25/7 9/26/7 10/27/7 12/28/7
f 14/29/8 13/30/8 15/31/8 16/32/8
f 10/33/9 9/34/9 13/35/9 14/36/9
f 15/37/10 11/38/10 12/39/10 16/40/10
f 13/41/11 9/42/11 11/43/11 15/44/11
f 12/45/12 10/46/12 14/47/12 16/48/12
o cuboid
v -0.625 0.203125 -1.296875
v -0.625 0.203125 -1.34375
v -0.625 0.1875 -1.296875
v -0.625 0.1875 -1.34375
v -0.375 0.203125 -1.296875
v -0.375 0.203125 -1.34375
v -0.375 0.1875 -1.296875
v -0.375 0.1875 -1.34375
vt 0.875 0.78125
vt 0.875 0.8125
vt 0.84375 0.8125
vt 0.84375 0.78125
vt 0.875 0.75
vt 0.84375 0.75
vt 0.84375 0.71875
vt 0.875 0.71875
vt 0.5 0.4375
vt 0.5 0.40625
vt 0.625 0.40625
vt 0.625 0.4375
vt 0.71875 0.78125
vt 0.59375 0.78125
vt 0.59375 0.75
vt 0.71875 0.75
vt 0.71875 0.71875
vt 0.59375 0.71875
vt 0.59375 0.6875
vt 0.71875 0.6875
vt 0.125 0.34375
vt 0.125 0.375
vt 0 0.375
vt 0 0.34375
vn -1 0 0
vn 1 0 0
vn 0 1 0
vn 0 -1 0
vn 0 0 1
vn 0 0 -1
usemtl m_42abda02-b9a4-a225-20a9-c8924d595b7f
f 19/49/13 17/50/13 18/51/13 20/52/13
f 22/53/14 21/54/14 23/55/14 24/56/14
f 18/57/15 17/58/15 21/59/15 22/60/15
f 23/61/16 19/62/16 20/63/16 24/64/16
f 21/65/17 17/66/17 19/67/17 23/68/17
f 20/69/18 18/70/18 22/71/18 24/72/18
o cuboid
v -0.55625 0.24375 -1.140625
v -0.61875 0.24375 -1.15625
v -0.55625 0.178125 -1.140625
v -0.61875 0.178125 -1.15625
v -0.44375 0.24375 -1.140625
v -0.38125 0.24375 -1.15625
v -0.44375 0.178125 -1.140625
v -0.38125 0.178125 -1.15625
vt 0.503125 0.9671875
vt 0.503125 1
vt 0.4709125 1
vt 0.4709125 0.9671875
vt 0.5915874999999999 1
vt 0.559375 1
vt 0.559375 0.9671875
vt 0.5915874999999999 0.9671875
vt 0.721875 0.65625
vt 0.753125 0.625
vt 0.809375 0.625
vt 0.840625 0.65625
vt 0.809375 0.59375
vt 0.753125 0.59375
vt 0.721875 0.5625
vt 0.840625 0.5625
vt 0.559375 1
vt 0.503125 1
vt 0.503125 0.9671875
vt 0.559375 0.9671875
vt 0.75 0.96875
vt 0.75 1
vt 0.625 1
vt 0.625 0.96875
vn -0.242535625036333 0 0.970142500145332
vn 0.242535625036333 0 0.970142500145332
vn 0 1 0
vn 0 -1 0
vn 0 0 1
vn 0 0 -1
usemtl m_42abda02-b9a4-a225-20a9-c8924d595b7f
f 27/73/19 25/74/19 26/75/19 28/76/19
f 30/77/20 29/78/20 31/79/20 32/80/20
f 26/81/21 25/82/21 29/83/21 30/84/21
f 31/85/22 27/86/22 28/87/22 32/88/22
f 29/89/23 25/90/23 27/91/23 31/92/23
f 28/93/24 26/94/24 30/95/24 32/96/24
o cuboid
v -0.53125 0.24375 -0.5
v -0.53125 0.24375 -1.140625
v -0.53125 0.18125 -0.5
v -0.53125 0.18125 -1.140625
v -0.46875 0.24375 -0.5
v -0.46875 0.24375 -1.140625
v -0.46875 0.18125 -0.5
v -0.46875 0.18125 -1.140625
vt 0.5625 0.71875
vt 0.5625 0.75
vt 0.25 0.75
vt 0.25 0.71875
vt 0.5625 0.6875
vt 0.25 0.6875
vt 0.25 0.65625
vt 0.5625 0.65625
vt 0.25 0.625
vt 0.25 0.3125
vt 0.28125 0.3125
vt 0.28125 0.625
vt 0.34375 0.625
vt 0.3125 0.625
vt 0.3125 0.3125
vt 0.34375 0.3125
vt 0.875 0.375
vt 0.84375 0.375
vt 0.84375 0.34375
vt 0.875 0.34375
vt 0.875 0.28125
vt 0.875 0.3125
vt 0.84375 0.3125
vt 0.84375 0.28125
vn -1 0 0
vn 1 0 0
vn 0 1 0
vn 0 -1 0
vn 0 0 1
vn 0 0 -1
usemtl m_42abda02-b9a4-a225-20a9-c8924d595b7f
f 35/97/25 33/98/25 34/99/25 36/100/25
f 38/101/26 37/102/26 39/103/26 40/104/26
f 34/105/27 33/106/27 37/107/27 38/108/27
f 39/109/28 35/110/28 36/111/28 40/112/28
f 37/113/29 33/114/29 35/115/29 39/116/29
f 36/117/30 34/118/30 38/119/30 40/120/30
o cuboid
v -0.53125 0.49375 -0.25
v -0.53125 0.24375 -0.5
v -0.53125 0.49375 -0.1875
v -0.53125 0.18125 -0.5
v -0.46875 0.49375 -0.25
v -0.46875 0.24375 -0.5
v -0.46875 0.49375 -0.1875
v -0.46875 0.18125 -0.5
vt 0.610485434560398 0.59375
vt 0.5883883476483185 0.625
vt 0.41161165235168157 0.625
vt 0.38951456543960195 0.59375
vt 0.40625 0.36362621779128346
vt 0.40625 0.5404029130879204
vt 0.375 0.5625
vt 0.375 0.3415291308792039
vt 0.46875 0.375
vt 0.46875 0.5625
vt 0.4375 0.5625
vt 0.4375 0.375
vt 0.4375 1
vt 0.40625 1
vt 0.40625 0.78125
vt 0.4375 0.78125
vt 0.78125 0.15625
vt 0.75 0.15625
vt 0.75 0.125
vt 0.78125 0.125
vt 0.875 0.21875
vt 0.875 0.25
vt 0.84375 0.25
vt 0.84375 0.21875
vn -1 0 0
vn 1 0 0
vn 0 0.7071067811865476 -0.7071067811865476
vn 0 -0.7071067811865476 0.7071067811865476
vn 0 1 0
vn 0 0 -1
usemtl m_42abda02-b9a4-a225-20a9-c8924d595b7f
f 43/121/31 41/122/31 42/123/31 44/124/31
f 46/125/32 45/126/32 47/127/32 48/128/32
f 42/129/33 41/130/33 45/131/33 46/132/33
f 47/133/34 43/134/34 44/135/34 48/136/34
f 45/137/35 41/138/35 43/139/35 47/140/35
f 44/141/36 42/142/36 46/143/36 48/144/36
o cuboid
v -0.53125 1.4125 -0.1875
v -0.53125 1.3375 -0.1875
v -0.53125 1.4125 -0.11875000000000002
v -0.53125 1.3375 -0.11875000000000002
v -0.46874999999999994 1.4125 -0.1875
v -0.46874999999999994 1.3375 -0.1875
v -0.46874999999999994 1.4125 -0.11875000000000002
v -0.46874999999999994 1.3375 -0.11875000000000002
vt 0.84375 0.15625
vt 0.8125 0.15625
vt 0.8125 0.125
vt 0.84375 0.125
vt 0.90625 0.96875
vt 0.90625 1
vt 0.875 1
vt 0.875 0.96875
vt 0.90625 0.90625
vt 0.90625 0.9375
vt 0.875 0.9375
vt 0.875 0.90625
vt 0.90625 0.875
vt 0.875 0.875
vt 0.875 0.84375
vt 0.90625 0.84375
vt 0.21875 0.125
vt 0.1875 0.125
vt 0.1875 0.09375
vt 0.21875 0.09375
vt 0.25 0.125
vt 0.25 0.09375
vt 0.28125 0.09375
vt 0.28125 0.125
vn -1 0 0
vn 1 0 0
vn 0 0 -1
vn 0 0 1
vn 0 1 0
vn 0 -1 0
usemtl m_42abda02-b9a4-a225-20a9-c8924d595b7f
f 51/145/37 49/146/37 50/147/37 52/148/37
f 54/149/38 53/150/38 55/151/38 56/152/38
f 50/153/39 49/154/39 53/155/39 54/156/39
f 55/157/40 51/158/40 52/159/40 56/160/40
f 53/161/41 49/162/41 51/163/41 55/164/41
f 52/165/42 50/166/42 54/167/42 56/168/42
o cuboid
v -0.53125 1.43125 -0.25
v -0.53125 0.49375 -0.25
v -0.53125 1.43125 -0.1875
v -0.53125 0.49375 -0.1875
v -0.46875 1.43125 -0.25
v -0.46875 0.49375 -0.25
v -0.46875 1.43125 -0.1875
v -0.46875 0.49375 -0.1875
vt 0.03125 1
vt 0 1
vt 0 0.53125
vt 0.03125 0.53125
vt 0.09375 0.53125
vt 0.09375 1
vt 0.0625 1
vt 0.0625 0.53125
vt 0.15625 0.53125
vt 0.15625 1
vt 0.125 1
vt 0.125 0.53125
vt 0.21875 1
vt 0.1875 1
vt 0.1875 0.53125
vt 0.21875 0.53125
vt 0.34375 0.125
vt 0.3125 0.125
vt 0.3125 0.09375
vt 0.34375 0.09375
vt 0.875 0.6875
vt 0.875 0.65625
vt 0.90625 0.65625
vt 0.90625 0.6875
vn -1 0 0
vn 1 0 0
vn 0 0 -1
vn 0 0 1
vn 0 1 0
vn 0 -1 0
usemtl m_42abda02-b9a4-a225-20a9-c8924d595b7f
f 59/169/43 57/170/43 58/171/43 60/172/43
f 62/173/44 61/174/44 63/175/44 64/176/44
f 58/177/45 57/178/45 61/179/45 62/180/45
f 63/181/46 59/182/46 60/183/46 64/184/46
f 61/185/47 57/186/47 59/187/47 63/188/47
f 60/189/48 58/190/48 62/191/48 64/192/48
o cuboid
v -0.546875 1.4125 -0.234375
v -0.546875 1.3375 -0.234375
v -0.546875 1.4125 -0.11875000000000002
v -0.546875 1.3375 -0.11875000000000002
v -0.53125 1.4125 -0.234375
v -0.53125 1.3375 -0.234375
v -0.53125 1.4125 -0.11875000000000002
v -0.53125 1.3375 -0.11875000000000002
vt 0.8125 0.8125
vt 0.75 0.8125
vt 0.75 0.78125
vt 0.8125 0.78125
vt 0.8125 0.71875
vt 0.8125 0.75
vt 0.75 0.75
vt 0.75 0.71875
vt 0.40625 0.09375
vt 0.40625 0.125
vt 0.375 0.125
vt 0.375 0.09375
vt 0.90625 0.625
vt 0.875 0.625
vt 0.875 0.59375
vt 0.90625 0.59375
vt 0.78125 0.53125
vt 0.75 0.53125
vt 0.75 0.46875
vt 0.78125 0.46875
vt 0.75 0.4375
vt 0.75 0.375
vt 0.78125 0.375
vt 0.78125 0.4375
vn -1 0 0
vn 1 0 0
vn 0 0 -1
vn 0 0 1
vn 0 1 0
vn 0 -1 0
usemtl m_42abda02-b9a4-a225-20a9-c8924d595b7f
f 67/193/49 65/194/49 66/195/49 68/196/49
f 70/197/50 69/198/50 71/199/50 72/200/50
f 66/201/51 65/202/51 69/203/51 70/204/51
f 71/205/52 67/206/52 68/207/52 72/208/52
f 69/209/53 65/210/53 67/211/53 71/212/53
f 68/213/54 66/214/54 70/215/54 72/216/54
o cuboid
v -0.46875000000000006 1.4125 -0.234375
v -0.46875000000000006 1.3375 -0.234375
v -0.46875000000000006 1.4125 -0.11875000000000002
v -0.46875000000000006 1.3375 -0.11875000000000002
v -0.45312499999999994 1.4125 -0.234375
v -0.45312499999999994 1.3375 -0.234375
v -0.45312499999999994 1.4125 -0.11875000000000002
v -0.45312499999999994 1.3375 -0.11875000000000002
vt 0.8125 0.34375
vt 0.75 0.34375
vt 0.75 0.3125
vt 0.8125 0.3125
vt 0.8125 0.25
vt 0.8125 0.28125
vt 0.75 0.28125
vt 0.75 0.25
vt 0.46875 0.09375
vt 0.46875 0.125
vt 0.4375 0.125
vt 0.4375 0.09375
vt 0.53125 0.125
vt 0.5 0.125
vt 0.5 0.09375
vt 0.53125 0.09375
vt 0.53125 0.21875
vt 0.5 0.21875
vt 0.5 0.15625
vt 0.53125 0.15625
vt 0.5625 0.21875
vt 0.5625 0.15625
vt 0.59375 0.15625
vt 0.59375 0.21875
vn -1 0 0
vn 1 0 0
vn 0 0 -1
vn 0 0 1
vn 0 1 0
vn 0 -1 0
usemtl m_42abda02-b9a4-a225-20a9-c8924d595b7f
f 75/217/55 73/218/55 74/219/55 76/220/55
f 78/221/56 77/222/56 79/223/56 80/224/56
f 74/225/57 73/226/57 77/227/57 78/228/57
f 79/229/58 75/230/58 76/231/58 80/232/58
f 77/233/59 73/234/59 75/235/59 79/236/59
f 76/237/60 74/238/60 78/239/60 80/240/60
o cuboid
v -0.53125 0.6625 -0.1875
v -0.53125 0.5874999999999998 -0.1875
v -0.53125 0.6625 -0.11875000000000002
v -0.53125 0.5874999999999998 -0.11875000000000002
v -0.46874999999999994 0.6625 -0.1875
v -0.46874999999999994 0.5874999999999998 -0.1875
v -0.46874999999999994 0.6625 -0.11875000000000002
v -0.46874999999999994 0.5874999999999998 -0.11875000000000002
vt 0.90625 0.46875
vt 0.875 0.46875
vt 0.875 0.4375
vt 0.90625 0.4375
vt 0.59375 0.09375
vt 0.59375 0.125
vt 0.5625 0.125
vt 0.5625 0.09375
vt 0.65625 0.09375
vt 0.65625 0.125
vt 0.625 0.125
vt 0.625 0.09375
vt 0.90625 0.1875
vt 0.875 0.1875
vt 0.875 0.15625
vt 0.90625 0.15625
vt 0.90625 0.125
vt 0.875 0.125
vt 0.875 0.09375
vt 0.90625 0.09375
vt 0 0.09375
vt 0 0.0625
vt 0.03125 0.0625
vt 0.03125 0.09375
vn -1 0 0
vn 1 0 0
vn 0 0 -1
vn 0 0 1
vn 0 1 0
vn 0 -1 0
usemtl m_42abda02-b9a4-a225-20a9-c8924d595b7f
f 83/241/61 81/242/61 82/243/61 84/244/61
f 86/245/62 85/246/62 87/247/62 88/248/62
f 82/249/63 81/250/63 85/251/63 86/252/63
f 87/253/64 83/254/64 84/255/64 88/256/64
f 85/257/65 81/258/65 83/259/65 87/260/65
f 84/261/66 82/262/66 86/263/66 88/264/66
o cuboid
v -0.546875 0.6625 -0.234375
v -0.546875 0.5874999999999998 -0.234375
v -0.546875 0.6625 -0.11875000000000002
v -0.546875 0.5874999999999998 -0.11875000000000002
v -0.53125 0.6625 -0.234375
v -0.53125 0.5874999999999998 -0.234375
v -0.53125 0.6625 -0.11875000000000002
v -0.53125 0.5874999999999998 -0.11875000000000002
vt 0.84375 1
vt 0.78125 1
vt 0.78125 0.96875
vt 0.84375 0.96875
vt 0.8125 0.1875
vt 0.8125 0.21875
vt 0.75 0.21875
vt 0.75 0.1875
vt 0.09375 0.0625
vt 0.09375 0.09375
vt 0.0625 0.09375
vt 0.0625 0.0625
vt 0.15625 0.09375
vt 0.125 0.09375
vt 0.125 0.0625
vt 0.15625 0.0625
vt 0.65625 0.21875
vt 0.625 0.21875
vt 0.625 0.15625
vt 0.65625 0.15625
vt 0.125 0.1875
vt 0.125 0.125
vt 0.15625 0.125
vt 0.15625 0.1875
vn -1 0 0
vn 1 0 0
vn 0 0 -1
vn 0 0 1
vn 0 1 0
vn 0 -1 0
usemtl m_42abda02-b9a4-a225-20a9-c8924d595b7f
f 91/265/67 89/266/67 90/267/67 92/268/67
f 94/269/68 93/270/68 95/271/68 96/272/68
f 90/273/69 89/274/69 93/275/69 94/276/69
f 95/277/70 91/278/70 92/279/70 96/280/70
f 93/281/71 89/282/71 91/283/71 95/284/71
f 92/285/72 90/286/72 94/287/72 96/288/72
o cuboid
v -0.46875000000000006 0.6625 -0.234375
v -0.46875000000000006 0.5874999999999998 -0.234375
v -0.46875000000000006 0.6625 -0.11875000000000002
v -0.46875000000000006 0.5874999999999998 -0.11875000000000002
v -0.45312499999999994 0.6625 -0.234375
v -0.45312499999999994 0.5874999999999998 -0.234375
v -0.45312499999999994 0.6625 -0.11875000000000002
v -0.45312499999999994 0.5874999999999998 -0.11875000000000002
vt 0.46875 0.1875
vt 0.40625 0.1875
vt 0.40625 0.15625
vt 0.46875 0.15625
vt 0.875 0.5
vt 0.875 0.53125
vt 0.8125 0.53125
vt 0.8125 0.5
vt 0.9375 0.78125
vt 0.9375 0.8125
vt 0.90625 0.8125
vt 0.90625 0.78125
vt 0.9375 0.75
vt 0.90625 0.75
vt 0.90625 0.71875
vt 0.9375 0.71875
vt 0.84375 0.46875
vt 0.8125 0.46875
vt 0.8125 0.40625
vt 0.84375 0.40625
vt 0.6875 0.1875
vt 0.6875 0.125
vt 0.71875 0.125
vt 0.71875 0.1875
vn -1 0 0
vn 1 0 0
vn 0 0 -1
vn 0 0 1
vn 0 1 0
vn 0 -1 0
usemtl m_42abda02-b9a4-a225-20a9-c8924d595b7f
f 99/289/73 97/290/73 98/291/73 100/292/73
f 102/293/74 101/294/74 103/295/74 104/296/74
f 98/297/75 97/298/75 101/299/75 102/300/75
f 103/301/76 99/302/76 100/303/76 104/304/76
f 101/305/77 97/306/77 99/307/77 103/308/77
f 100/309/78 98/310/78 102/311/78 104/312/78
o cylinder
v -0.375 1.3750000000000004 -0.15625
v -0.625 1.3750000000000004 -0.15625
v -0.375 1.3879441738241596 -0.125
v -0.625 1.3879441738241598 -0.125
v -0.375 1.4062500000000004 -0.14330582617584078
v -0.625 1.4062500000000004 -0.14330582617584078
v -0.375 1.4062500000000004 -0.16919417382415922
v -0.625 1.4062500000000004 -0.16919417382415922
v -0.375 1.3879441738241596 -0.1875
v -0.625 1.3879441738241598 -0.1875
v -0.375 1.362055826175841 -0.1875
v -0.625 1.3620558261758413 -0.1875
v -0.375 1.3437500000000004 -0.16919417382415924
v -0.625 1.3437500000000004 -0.16919417382415924
v -0.375 1.3437500000000004 -0.14330582617584078
v -0.625 1.3437500000000004 -0.14330582617584078
v -0.375 1.362055826175841 -0.125
v -0.625 1.3620558261758413 -0.125
vt 0.9375 0.553346875
vt 0.928346875 0.5625
vt 0.921875 0.546875
vt 0.625 0.25
vt 0.65625 0.25
vt 0.65625 0.375
vt 0.625 0.375
vt 0.928346875 0.375
vt 0.9375 0.384153125
vt 0.921875 0.390625
vt 0.9375 0.540403125
vt 0.9375 0.553346875
vt 0.921875 0.546875
vt 0.15625 0.375
vt 0.1875 0.375
vt 0.1875 0.5
vt 0.15625 0.5
vt 0.9375 0.384153125
vt 0.9375 0.397096875
vt 0.921875 0.390625
vt 0.928346875 0.53125
vt 0.9375 0.540403125
vt 0.921875 0.546875
vt 0.15625 0.21875
vt 0.1875 0.21875
vt 0.1875 0.34375
vt 0.15625 0.34375
vt 0.9375 0.397096875
vt 0.928346875 0.40625
vt 0.921875 0.390625
vt 0.915403125 0.53125
vt 0.928346875 0.53125
vt 0.921875 0.546875
vt 0.5625 0.25
vt 0.59375 0.25
vt 0.59375 0.375
vt 0.5625 0.375
vt 0.928346875 0.40625
vt 0.915403125 0.40625
vt 0.921875 0.390625
vt 0.90625 0.540403125
vt 0.915403125 0.53125
vt 0.921875 0.546875
vt 0.4375 0.21875
vt 0.46875 0.21875
vt 0.46875 0.34375
vt 0.4375 0.34375
vt 0.915403125 0.40625
vt 0.90625 0.397096875
vt 0.921875 0.390625
vt 0.90625 0.553346875
vt 0.90625 0.540403125
vt 0.921875 0.546875
vt 0.625 0.8125
vt 0.65625 0.8125
vt 0.65625 0.9375
vt 0.625 0.9375
vt 0.90625 0.397096875
vt 0.90625 0.384153125
vt 0.921875 0.390625
vt 0.915403125 0.5625
vt 0.90625 0.553346875
vt 0.921875 0.546875
vt 0.65625 0.53125
vt 0.6875 0.53125
vt 0.6875 0.65625
vt 0.65625 0.65625
vt 0.90625 0.384153125
vt 0.915403125 0.375
vt 0.921875 0.390625
vt 0.928346875 0.5625
vt 0.915403125 0.5625
vt 0.921875 0.546875
vt 0.5 0.25
vt 0.53125 0.25
vt 0.53125 0.375
vt 0.5 0.375
vt 0.915403125 0.375
vt 0.928346875 0.375
vt 0.921875 0.390625
vn 1 -2.220446049250313e-16 0
vn 1.5700924586837752e-16 0.7071067811865476 0.7071067811865476
vn -1 2.220446049250313e-16 0
vn 1 -2.220446049250313e-16 0
vn 2.220446049250313e-16 1 0
vn -1 2.220446049250313e-16 0
vn 1 -2.220446049250313e-16 0
vn 1.5700924586837752e-16 0.7071067811865476 -0.7071067811865475
vn -1 2.220446049250313e-16 0
vn 1 -2.220446049250313e-16 0
vn 5.95149592565776e-32 2.6803154833089315e-16 -1
vn -1 2.220446049250313e-16 0
vn 1 -2.220446049250313e-16 0
vn -1.5700924586837747e-16 -0.7071067811865474 -0.7071067811865477
vn -1 2.220446049250313e-16 0
vn 1 -2.220446049250313e-16 0
vn -2.220446049250313e-16 -1 -1.3401577416544645e-16
vn -1 2.220446049250313e-16 0
vn 1 -2.220446049250313e-16 0
vn -1.5700924586837754e-16 -0.7071067811865477 0.7071067811865474
vn -1 2.220446049250313e-16 0
vn 1 -2.220446049250313e-16 0
vn -5.951495925657755e-32 -2.680315483308929e-16 1
vn -1 2.220446049250313e-16 0
usemtl m_42abda02-b9a4-a225-20a9-c8924d595b7f
f 109/313/79 107/314/79 105/315/79
f 107/316/80 109/317/80 110/318/80 108/319/80
f 108/320/81 110/321/81 106/322/81
f 111/323/82 109/324/82 105/325/82
f 109/326/83 111/327/83 112/328/83 110/329/83
f 110/330/84 112/331/84 106/332/84
f 113/333/85 111/334/85 105/335/85
f 111/336/86 113/337/86 114/338/86 112/339/86
f 112/340/87 114/341/87 106/342/87
f 115/343/88 113/344/88 105/345/88
f 113/346/89 115/347/89 116/348/89 114/349/89
f 114/350/90 116/351/90 106/352/90
f 117/353/91 115/354/91 105/355/91
f 115/356/92 117/357/92 118/358/92 116/359/92
f 116/360/93 118/361/93 106/362/93
f 119/363/94 117/364/94 105/365/94
f 117/366/95 119/367/95 120/368/95 118/369/95
f 118/370/96 120/371/96 106/372/96
f 121/373/97 119/374/97 105/375/97
f 119/376/98 121/377/98 122/378/98 120/379/98
f 120/380/99 122/381/99 106/382/99
f 107/383/100 121/384/100 105/385/100
f 121/386/101 107/387/101 108/388/101 122/389/101
f 122/390/102 108/391/102 106/392/102
o cylinder
v -0.375 0.6250000000000004 -0.15625
v -0.625 0.6250000000000004 -0.15625
v -0.375 0.6379441738241597 -0.125
v -0.625 0.6379441738241597 -0.125
v -0.375 0.6562500000000004 -0.14330582617584078
v -0.625 0.6562500000000004 -0.14330582617584078
v -0.375 0.6562500000000004 -0.16919417382415922
v -0.625 0.6562500000000004 -0.16919417382415922
v -0.375 0.6379441738241597 -0.1875
v -0.625 0.6379441738241597 -0.1875
v -0.375 0.6120558261758412 -0.1875
v -0.625 0.6120558261758412 -0.1875
v -0.375 0.5937500000000004 -0.16919417382415924
v -0.625 0.5937500000000004 -0.16919417382415924
v -0.375 0.5937500000000004 -0.14330582617584078
v -0.625 0.5937500000000004 -0.14330582617584078
v -0.375 0.6120558261758412 -0.125
v -0.625 0.6120558261758412 -0.125
vt 0.9375 0.334596875
vt 0.928346875 0.34375
vt 0.921875 0.328125
vt 0.6875 0.21875
vt 0.71875 0.21875
vt 0.71875 0.34375
vt 0.6875 0.34375
vt 0.709596875 0.0625
vt 0.71875 0.07165312499999998
vt 0.703125 0.078125
vt 0.9375 0.321653125
vt 0.9375 0.334596875
vt 0.921875 0.328125
vt 0 0.1875
vt 0.03125 0.1875
vt 0.03125 0.3125
vt 0 0.3125
vt 0.71875 0.07165312499999998
vt 0.71875 0.08459687500000002
vt 0.703125 0.078125
vt 0.928346875 0.3125
vt 0.9375 0.321653125
vt 0.921875 0.328125
vt 0.21875 0.15625
vt 0.25 0.15625
vt 0.25 0.28125
vt 0.21875 0.28125
vt 0.71875 0.08459687500000002
vt 0.709596875 0.09375
vt 0.703125 0.078125
vt 0.915403125 0.3125
vt 0.928346875 0.3125
vt 0.921875 0.328125
vt 0.6875 0.375
vt 0.71875 0.375
vt 0.71875 0.5
vt 0.6875 0.5
vt 0.709596875 0.09375
vt 0.696653125 0.09375
vt 0.703125 0.078125
vt 0.90625 0.321653125
vt 0.915403125 0.3125
vt 0.921875 0.328125
vt 0.34375 0.15625
vt 0.375 0.15625
vt 0.375 0.28125
vt 0.34375 0.28125
vt 0.696653125 0.09375
vt 0.6875 0.08459687500000002
vt 0.703125 0.078125
vt 0.90625 0.334596875
vt 0.90625 0.321653125
vt 0.921875 0.328125
vt 0.0625 0.1875
vt 0.09375 0.1875
vt 0.09375 0.3125
vt 0.0625 0.3125
vt 0.6875 0.08459687500000002
vt 0.6875 0.07165312499999998
vt 0.703125 0.078125
vt 0.915403125 0.34375
vt 0.90625 0.334596875
vt 0.921875 0.328125
vt 0.28125 0.15625
vt 0.3125 0.15625
vt 0.3125 0.28125
vt 0.28125 0.28125
vt 0.6875 0.07165312499999998
vt 0.696653125 0.0625
vt 0.703125 0.078125
vt 0.928346875 0.34375
vt 0.915403125 0.34375
vt 0.921875 0.328125
vt 0.6875 0.8125
vt 0.71875 0.8125
vt 0.71875 0.9375
vt 0.6875 0.9375
vt 0.696653125 0.0625
vt 0.709596875 0.0625
vt 0.703125 0.078125
vn 1 -2.220446049250313e-16 0
vn 1.5700924586837752e-16 0.7071067811865476 0.7071067811865476
vn -1 2.220446049250313e-16 0
vn 1 -2.220446049250313e-16 0
vn 2.220446049250313e-16 1 0
vn -1 2.220446049250313e-16 0
vn 1 -2.220446049250313e-16 0
vn 1.5700924586837752e-16 0.7071067811865476 -0.7071067811865475
vn -1 2.220446049250313e-16 0
vn 1 -2.220446049250313e-16 0
vn 5.95149592565776e-32 2.6803154833089315e-16 -1
vn -1 2.220446049250313e-16 0
vn 1 -2.220446049250313e-16 0
vn -1.5700924586837747e-16 -0.7071067811865474 -0.7071067811865477
vn -1 2.220446049250313e-16 0
vn 1 -2.220446049250313e-16 0
vn -2.220446049250313e-16 -1 -1.3401577416544645e-16
vn -1 2.220446049250313e-16 0
vn 1 -2.220446049250313e-16 0
vn -1.5700924586837754e-16 -0.7071067811865477 0.7071067811865474
vn -1 2.220446049250313e-16 0
vn 1 -2.220446049250313e-16 0
vn -5.951495925657755e-32 -2.680315483308929e-16 1
vn -1 2.220446049250313e-16 0
usemtl m_42abda02-b9a4-a225-20a9-c8924d595b7f
f 127/393/103 125/394/103 123/395/103
f 125/396/104 127/397/104 128/398/104 126/399/104
f 126/400/105 128/401/105 124/402/105
f 129/403/106 127/404/106 123/405/106
f 127/406/107 129/407/107 130/408/107 128/409/107
f 128/410/108 130/411/108 124/412/108
f 131/413/109 129/414/109 123/415/109
f 129/416/110 131/417/110 132/418/110 130/419/110
f 130/420/111 132/421/111 124/422/111
f 133/423/112 131/424/112 123/425/112
f 131/426/113 133/427/113 134/428/113 132/429/113
f 132/430/114 134/431/114 124/432/114
f 135/433/115 133/434/115 123/435/115
f 133/436/116 135/437/116 136/438/116 134/439/116
f 134/440/117 136/441/117 124/442/117
f 137/443/118 135/444/118 123/445/118
f 135/446/119 137/447/119 138/448/119 136/449/119
f 136/450/120 138/451/120 124/452/120
f 139/453/121 137/454/121 123/455/121
f 137/456/122 139/457/122 140/458/122 138/459/122
f 138/460/123 140/461/123 124/462/123
f 125/463/124 139/464/124 123/465/124
f 139/466/125 125/467/125 126/468/125 140/469/125
f 140/470/126 126/471/126 124/472/126