# Made in Blockbench 4.10.2
mtllib sign_terminalexit.mtl

o cuboid
v 1.25 1.125 0.015625
v -1.25 1.125 0.015625
v 1.25 -0.125 0.015625
v -1.25 -0.125 0.015625
v 1.25 1.125 -0.015625
v -1.25 1.125 -0.015625
v 1.25 -0.125 -0.015625
v -1.25 -0.125 -0.015625
vt 0.3125 0.84375
vt 0.3125 1
vt 0 1
vt 0 0.84375
vt 0.3125 0.8359375
vt 0 0.8359375
vt 0 0.6796875
vt 0.3125 0.6796875
vt 0.3203125 0.9921875
vt 0.6328125 0.9921875
vt 0.6328125 1
vt 0.3203125 1
vt 0.6328125 0.9765625
vt 0.6328125 0.984375
vt 0.3203125 0.984375
vt 0.3203125 0.9765625
vt 0.03125 0.671875
vt 0.0234375 0.671875
vt 0.0234375 0.515625
vt 0.03125 0.515625
vt 0.046875 0.515625
vt 0.046875 0.671875
vt 0.0390625 0.671875
vt 0.0390625 0.515625
vn 0 0 1
vn 0 0 -1
vn 0 1 0
vn 0 -1 0
vn 1 0 0
vn -1 0 0
usemtl m_cf54f948-9b3a-3c74-64d3-b24de9616f22
f 3/1/1 1/2/1 2/3/1 4/4/1
f 6/5/2 5/6/2 7/7/2 8/8/2
f 2/9/3 1/10/3 5/11/3 6/12/3
f 7/13/4 3/14/4 4/15/4 8/16/4
f 5/17/5 1/18/5 3/19/5 7/20/5
f 4/21/6 2/22/6 6/23/6 8/24/6
o cuboid
v 1.375 1 0.015625
v 1.25 1 0.015625
v 1.375 0 0.015625
v 1.25 0 0.015625
v 1.375 1 -0.015625
v 1.25 1 -0.015625
v 1.375 0 -0.015625
v 1.25 0 -0.015625
vt 0.3359375 0.84375
vt 0.3359375 0.96875
vt 0.3203125 0.96875
vt 0.3203125 0.84375
vt 0.3359375 0.8359375
vt 0.3203125 0.8359375
vt 0.3203125 0.7109375
vt 0.3359375 0.7109375
vt 0.34375 0.9609375
vt 0.359375 0.9609375
vt 0.359375 0.96875
vt 0.34375 0.96875
vt 0.359375 0.9453125
vt 0.359375 0.953125
vt 0.34375 0.953125
vt 0.34375 0.9453125
vt 0.0625 0.671875
vt 0.0546875 0.671875
vt 0.0546875 0.546875
vt 0.0625 0.546875
vt 0.078125 0.546875
vt 0.078125 0.671875
vt 0.0703125 0.671875
vt 0.0703125 0.546875
vn 0 0 1
vn 0 0 -1
vn 0 1 0
vn 0 -1 0
vn 1 0 0
vn -1 0 0
usemtl m_cf54f948-9b3a-3c74-64d3-b24de9616f22
f 11/25/7 9/26/7 10/27/7 12/28/7
f 14/29/8 13/30/8 15/31/8 16/32/8
f 10/33/9 9/34/9 13/35/9 14/36/9
f 15/37/10 11/38/10 12/39/10 16/40/10
f 13/41/11 9/42/11 11/43/11 15/44/11
f 12/45/12 10/46/12 14/47/12 16/48/12
o cuboid
v -1.375 1 0.015625
v -1.25 1 0.015625
v -1.375 0 0.015625
v -1.25 0 0.015625
v -1.375 1 -0.015625
v -1.25 1 -0.015625
v -1.375 0 -0.015625
v -1.25 0 -0.015625
vt 0.3359375 0.703125
vt 0.3203125 0.703125
vt 0.3203125 0.578125
vt 0.3359375 0.578125
vt 0.015625 0.546875
vt 0.015625 0.671875
vt 0 0.671875
vt 0 0.546875
vt 0.34375 0.921875
vt 0.34375 0.9140625
vt 0.359375 0.9140625
vt 0.359375 0.921875
vt 0.359375 0.90625
vt 0.34375 0.90625
vt 0.34375 0.8984375
vt 0.359375 0.8984375
vt 0.09375 0.546875
vt 0.09375 0.671875
vt 0.0859375 0.671875
vt 0.0859375 0.546875
vt 0.109375 0.671875
vt 0.1015625 0.671875
vt 0.1015625 0.546875
vt 0.109375 0.546875
vn 0 0 1
vn 0 0 -1
vn 0 1 0
vn 0 -1 0
vn -1 0 0
vn 1 0 0
usemtl m_cf54f948-9b3a-3c74-64d3-b24de9616f22
f 18/49/13 17/50/13 19/51/13 20/52/13
f 23/53/14 21/54/14 22/55/14 24/56/14
f 21/57/15 17/58/15 18/59/15 22/60/15
f 20/61/16 19/62/16 23/63/16 24/64/16
f 19/65/17 17/66/17 21/67/17 23/68/17
f 22/69/18 18/70/18 20/71/18 24/72/18
o cuboid
v -1.328125 -0.078125 0.015625
v -1.25 -0.125 0.015625
v -1.375 0 0.015625
v -1.25 0 0.015625
v -1.328125 -0.078125 -0.015625
v -1.25 -0.125 -0.015625
v -1.375 0 -0.015625
v -1.25 0 -0.015625
vt 0.1640625 0.671875
vt 0.169921875 0.662109375
vt 0.1796875 0.65625
vt 0.1796875 0.671875
vt 0.1875 0.65625
vt 0.197265625 0.662109375
vt 0.203125 0.671875
vt 0.1875 0.671875
vt 0.34765625 0.71875
vt 0.34765625 0.73013828125
vt 0.34375 0.73013828125
vt 0.34375 0.71875
vt 0.34375 0.890625
vt 0.34375 0.8828125
vt 0.359375 0.8828125
vt 0.359375 0.890625
vt 0.34375 0.73013828125
vt 0.34765625 0.73013828125
vt 0.34765625 0.7415265625
vt 0.34375 0.7415265625
vt 0.34375 0.875
vt 0.34375 0.859375
vt 0.3515625 0.859375
vt 0.3515625 0.875
vn 0 0 1
vn 0 0 -1
vn -0.5144957554275266 -0.8574929257125443 0
vn 0 1 0
vn -0.8574929257125443 -0.5144957554275266 0
vn 1 0 0
usemtl m_cf54f948-9b3a-3c74-64d3-b24de9616f22
f 27/73/19 25/74/19 26/75/19 28/76/19
f 30/77/20 29/78/20 31/79/20 32/80/20
f 26/81/21 25/82/21 29/83/21 30/84/21
f 31/85/22 27/86/22 28/87/22 32/88/22
f 29/89/23 25/90/23 27/91/23 31/92/23
f 28/93/24 26/94/24 30/95/24 32/96/24
o cuboid
v -1.328125 1.078125 0.015625
v -1.25 1.125 0.015625
v -1.375 1 0.015625
v -1.25 1 0.015625
v -1.328125 1.078125 -0.015625
v -1.25 1.125 -0.015625
v -1.375 1 -0.015625
v -1.25 1 -0.015625
vt 0.1796875 0.65625
vt 0.169921875 0.662109375
vt 0.1640625 0.671875
vt 0.1796875 0.671875
vt 0.203125 0.671875
vt 0.197265625 0.662109375
vt 0.1875 0.65625
vt 0.1875 0.671875
vt 0.34375 0.73013828125
vt 0.34765625 0.73013828125
vt 0.34765625 0.71875
vt 0.34375 0.71875
vt 0.359375 0.8828125
vt 0.34375 0.8828125
vt 0.34375 0.890625
vt 0.359375 0.890625
vt 0.34765625 0.7415265625
vt 0.34765625 0.73013828125
vt 0.34375 0.73013828125
vt 0.34375 0.7415265625
vt 0.3515625 0.859375
vt 0.34375 0.859375
vt 0.34375 0.875
vt 0.3515625 0.875
vn 0 0 1
vn 0 0 -1
vn -0.5144957554275266 0.8574929257125443 0
vn 0 -1 0
vn -0.8574929257125443 0.5144957554275266 0
vn 1 0 0
usemtl m_cf54f948-9b3a-3c74-64d3-b24de9616f22
f 34/97/25 33/98/25 35/99/25 36/100/25
f 39/101/26 37/102/26 38/103/26 40/104/26
f 37/105/27 33/106/27 34/107/27 38/108/27
f 36/109/28 35/110/28 39/111/28 40/112/28
f 35/113/29 33/114/29 37/115/29 39/116/29
f 38/117/30 34/118/30 36/119/30 40/120/30
o cuboid
v 1.328125 1.078125 0.015625
v 1.25 1.125 0.015625
v 1.375 1 0.015625
v 1.25 1 0.015625
v 1.328125 1.078125 -0.015625
v 1.25 1.125 -0.015625
v 1.375 1 -0.015625
v 1.25 1 -0.015625
vt 0.1640625 0.671875
vt 0.169921875 0.662109375
vt 0.1796875 0.65625
vt 0.1796875 0.671875
vt 0.1875 0.65625
vt 0.197265625 0.662109375
vt 0.203125 0.671875
vt 0.1875 0.671875
vt 0.34765625 0.71875
vt 0.34765625 0.73013828125
vt 0.34375 0.73013828125
vt 0.34375 0.71875
vt 0.34375 0.890625
vt 0.34375 0.8828125
vt 0.359375 0.8828125
vt 0.359375 0.890625
vt 0.34375 0.73013828125
vt 0.34765625 0.73013828125
vt 0.34765625 0.7415265625
vt 0.34375 0.7415265625
vt 0.34375 0.875
vt 0.34375 0.859375
vt 0.3515625 0.859375
vt 0.3515625 0.875
vn 0 0 1
vn 0 0 -1
vn 0.5144957554275266 0.8574929257125443 0
vn 0 -1 0
vn 0.8574929257125443 0.5144957554275266 0
vn -1 0 0
usemtl m_cf54f948-9b3a-3c74-64d3-b24de9616f22
f 43/121/31 41/122/31 42/123/31 44/124/31
f 46/125/32 45/126/32 47/127/32 48/128/32
f 42/129/33 41/130/33 45/131/33 46/132/33
f 47/133/34 43/134/34 44/135/34 48/136/34
f 45/137/35 41/138/35 43/139/35 47/140/35
f 44/141/36 42/142/36 46/143/36 48/144/36
o cuboid
v 1.328125 -0.078125 0.015625
v 1.25 -0.125 0.015625
v 1.375 0 0.015625
v 1.25 0 0.015625
v 1.328125 -0.078125 -0.015625
v 1.25 -0.125 -0.015625
v 1.375 0 -0.015625
v 1.25 0 -0.015625
vt 0.1796875 0.65625
vt 0.169921875 0.662109375
vt 0.1640625 0.671875
vt 0.1796875 0.671875
vt 0.203125 0.671875
vt 0.197265625 0.662109375
vt 0.1875 0.65625
vt 0.1875 0.671875
vt 0.34375 0.73013828125
vt 0.34765625 0.73013828125
vt 0.34765625 0.71875
vt 0.34375 0.71875
vt 0.359375 0.8828125
vt 0.34375 0.8828125
vt 0.34375 0.890625
vt 0.359375 0.890625
vt 0.34765625 0.7415265625
vt 0.34765625 0.73013828125
vt 0.34375 0.73013828125
vt 0.34375 0.7415265625
vt 0.3515625 0.859375
vt 0.34375 0.859375
vt 0.34375 0.875
vt 0.3515625 0.875
vn 0 0 1
vn 0 0 -1
vn 0.5144957554275266 -0.8574929257125443 0
vn 0 1 0
vn 0.8574929257125443 -0.5144957554275266 0
vn -1 0 0
usemtl m_cf54f948-9b3a-3c74-64d3-b24de9616f22
f 50/145/37 49/146/37 51/147/37 52/148/37
f 55/149/38 53/150/38 54/151/38 56/152/38
f 53/153/39 49/154/39 50/155/39 54/156/39
f 52/157/40 51/158/40 55/159/40 56/160/40
f 51/161/41 49/162/41 53/163/41 55/164/41
f 54/165/42 50/166/42 52/167/42 56/168/42
o cuboid
v -0.125 0.625 0.021875
v -1.125 0.625 0.021875
v -0.125 0.4375 0.021875
v -1.125 0.4375 0.021875
v -0.125 0.625 -0.009375000000000001
v -1.125 0.625 -0.009375000000000001
v -0.125 0.4375 -0.009375000000000001
v -1.125 0.4375 -0.009375000000000001
vt 0.6328125 0.8203125
vt 0.6328125 0.84375
vt 0.5078125 0.84375
vt 0.5078125 0.8203125
vt 0.6328125 0.6796875
vt 0.5078125 0.6796875
vt 0.5078125 0.65625
vt 0.6328125 0.65625
vt 0.828125 0.91015625
vt 0.953125 0.91015625
vt 0.953125 0.9140625
vt 0.828125 0.9140625
vt 0.953125 0.88671875
vt 0.953125 0.890625
vt 0.828125 0.890625
vt 0.828125 0.88671875
vt 0.44921875 0.515625
vt 0.4453125 0.515625
vt 0.4453125 0.4921875
vt 0.44921875 0.4921875
vt 0.45703125 0.4921875
vt 0.45703125 0.515625
vt 0.453125 0.515625
vt 0.453125 0.4921875
vn 0 0 1
vn 0 0 -1
vn 0 1 0
vn 0 -1 0
vn 1 0 0
vn -1 0 0
usemtl m_cf54f948-9b3a-3c74-64d3-b24de9616f22
f 59/169/43 57/170/43 58/171/43 60/172/43
f 62/173/44 61/174/44 63/175/44 64/176/44
f 58/177/45 57/178/45 61/179/45 62/180/45
f 63/181/46 59/182/46 60/183/46 64/184/46
f 61/185/47 57/186/47 59/187/47 63/188/47
f 60/189/48 58/190/48 62/191/48 64/192/48
o cuboid
v 0.125 0.625 0.021875
v 1.125 0.625 0.021875
v 0.125 0.4375 0.021875
v 1.125 0.4375 0.021875
v 0.125 0.625 -0.009375
v 1.125 0.625 -0.009375
v 0.125 0.4375 -0.009375
v 1.125 0.4375 -0.009375
vt 0.6328125 0.84375
vt 0.5078125 0.84375
vt 0.5078125 0.8203125
vt 0.6328125 0.8203125
vt 0.6328125 0.65625
vt 0.6328125 0.6796875
vt 0.5078125 0.6796875
vt 0.5078125 0.65625
vt 0.828125 0.9140625
vt 0.828125 0.91015625
vt 0.953125 0.91015625
vt 0.953125 0.9140625
vt 0.953125 0.890625
vt 0.828125 0.890625
vt 0.828125 0.88671875
vt 0.953125 0.88671875
vt 0.44140625 0.4921875
vt 0.44140625 0.515625
vt 0.4375 0.515625
vt 0.4375 0.4921875
vt 0.46484375 0.515625
vt 0.4609375 0.515625
vt 0.4609375 0.4921875
vt 0.46484375 0.4921875
vn 0 0 1
vn 0 0 -1
vn 0 1 0
vn 0 -1 0
vn -1 0 0
vn 1 0 0
usemtl m_cf54f948-9b3a-3c74-64d3-b24de9616f22
f 66/193/49 65/194/49 67/195/49 68/196/49
f 71/197/50 69/198/50 70/199/50 72/200/50
f 69/201/51 65/202/51 66/203/51 70/204/51
f 68/205/52 67/206/52 71/207/52 72/208/52
f 67/209/53 65/210/53 69/211/53 71/212/53
f 70/213/54 66/214/54 68/215/54 72/216/54
o cuboid
v 0.125 0.40625 0.021875
v 1.125 0.40625 0.021875
v 0.125 0.21875 0.021875
v 1.125 0.21875 0.021875
v 0.125 0.40625 -0.009375
v 1.125 0.40625 -0.009375
v 0.125 0.21875 -0.009375
v 1.125 0.21875 -0.009375
vt 0.6328125 0.84375
vt 0.5078125 0.84375
vt 0.5078125 0.8203125
vt 0.6328125 0.8203125
vt 0.6328125 0.65625
vt 0.6328125 0.6796875
vt 0.5078125 0.6796875
vt 0.5078125 0.65625
vt 0.828125 0.9140625
vt 0.828125 0.91015625
vt 0.953125 0.91015625
vt 0.953125 0.9140625
vt 0.953125 0.890625
vt 0.828125 0.890625
vt 0.828125 0.88671875
vt 0.953125 0.88671875
vt 0.44140625 0.4921875
vt 0.44140625 0.515625
vt 0.4375 0.515625
vt 0.4375 0.4921875
vt 0.46484375 0.515625
vt 0.4609375 0.515625
vt 0.4609375 0.4921875
vt 0.46484375 0.4921875
vn 0 0 1
vn 0 0 -1
vn 0 1 0
vn 0 -1 0
vn -1 0 0
vn 1 0 0
usemtl m_cf54f948-9b3a-3c74-64d3-b24de9616f22
f 74/217/55 73/218/55 75/219/55 76/220/55
f 79/221/56 77/222/56 78/223/56 80/224/56
f 77/225/57 73/226/57 74/227/57 78/228/57
f 76/229/58 75/230/58 79/231/58 80/232/58
f 75/233/59 73/234/59 77/235/59 79/236/59
f 78/237/60 74/238/60 76/239/60 80/240/60
o cuboid
v -0.125 0.40625 0.021875
v -1.125 0.40625 0.021875
v -0.125 0.21875 0.021875
v -1.125 0.21875 0.021875
v -0.125 0.40625 -0.009375
v -1.125 0.40625 -0.009375
v -0.125 0.21875 -0.009375
v -1.125 0.21875 -0.009375
vt 0.6328125 0.8203125
vt 0.6328125 0.84375
vt 0.5078125 0.84375
vt 0.5078125 0.8203125
vt 0.6328125 0.6796875
vt 0.5078125 0.6796875
vt 0.5078125 0.65625
vt 0.6328125 0.65625
vt 0.828125 0.91015625
vt 0.953125 0.91015625
vt 0.953125 0.9140625
vt 0.828125 0.9140625
vt 0.953125 0.88671875
vt 0.953125 0.890625
vt 0.828125 0.890625
vt 0.828125 0.88671875
vt 0.44921875 0.515625
vt 0.4453125 0.515625
vt 0.4453125 0.4921875
vt 0.44921875 0.4921875
vt 0.45703125 0.4921875
vt 0.45703125 0.515625
vt 0.453125 0.515625
vt 0.453125 0.4921875
vn 0 0 1
vn 0 0 -1
vn 0 1 0
vn 0 -1 0
vn 1 0 0
vn -1 0 0
usemtl m_cf54f948-9b3a-3c74-64d3-b24de9616f22
f 83/241/61 81/242/61 82/243/61 84/244/61
f 86/245/62 85/246/62 87/247/62 88/248/62
f 82/249/63 81/250/63 85/251/63 86/252/63
f 87/253/64 83/254/64 84/255/64 88/256/64
f 85/257/65 81/258/65 83/259/65 87/260/65
f 84/261/66 82/262/66 86/263/66 88/264/66
o cuboid
v 0.125 0.1875 0.021875
v 1.125 0.1875 0.021875
v 0.125 0 0.021875
v 1.125 0 0.021875
v 0.125 0.1875 -0.009375
v 1.125 0.1875 -0.009375
v 0.125 0 -0.009375
v 1.125 0 -0.009375
vt 0.6328125 0.84375
vt 0.5078125 0.84375
vt 0.5078125 0.8203125
vt 0.6328125 0.8203125
vt 0.6328125 0.65625
vt 0.6328125 0.6796875
vt 0.5078125 0.6796875
vt 0.5078125 0.65625
vt 0.828125 0.9140625
vt 0.828125 0.91015625
vt 0.953125 0.91015625
vt 0.953125 0.9140625
vt 0.953125 0.890625
vt 0.828125 0.890625
vt 0.828125 0.88671875
vt 0.953125 0.88671875
vt 0.44140625 0.4921875
vt 0.44140625 0.515625
vt 0.4375 0.515625
vt 0.4375 0.4921875
vt 0.46484375 0.515625
vt 0.4609375 0.515625
vt 0.4609375 0.4921875
vt 0.46484375 0.4921875
vn 0 0 1
vn 0 0 -1
vn 0 1 0
vn 0 -1 0
vn -1 0 0
vn 1 0 0
usemtl m_cf54f948-9b3a-3c74-64d3-b24de9616f22
f 90/265/67 89/266/67 91/267/67 92/268/67
f 95/269/68 93/270/68 94/271/68 96/272/68
f 93/273/69 89/274/69 90/275/69 94/276/69
f 92/277/70 91/278/70 95/279/70 96/280/70
f 91/281/71 89/282/71 93/283/71 95/284/71
f 94/285/72 90/286/72 92/287/72 96/288/72
o cuboid
v -0.125 0.1875 0.021875
v -1.125 0.1875 0.021875
v -0.125 0 0.021875
v -1.125 0 0.021875
v -0.125 0.1875 -0.009375
v -1.125 0.1875 -0.009375
v -0.125 0 -0.009375
v -1.125 0 -0.009375
vt 0.6328125 0.8203125
vt 0.6328125 0.84375
vt 0.5078125 0.84375
vt 0.5078125 0.8203125
vt 0.6328125 0.6796875
vt 0.5078125 0.6796875
vt 0.5078125 0.65625
vt 0.6328125 0.65625
vt 0.828125 0.91015625
vt 0.953125 0.91015625
vt 0.953125 0.9140625
vt 0.828125 0.9140625
vt 0.953125 0.88671875
vt 0.953125 0.890625
vt 0.828125 0.890625
vt 0.828125 0.88671875
vt 0.44921875 0.515625
vt 0.4453125 0.515625
vt 0.4453125 0.4921875
vt 0.44921875 0.4921875
vt 0.45703125 0.4921875
vt 0.45703125 0.515625
vt 0.453125 0.515625
vt 0.453125 0.4921875
vn 0 0 1
vn 0 0 -1
vn 0 1 0
vn 0 -1 0
vn 1 0 0
vn -1 0 0
usemtl m_cf54f948-9b3a-3c74-64d3-b24de9616f22
f 99/289/73 97/290/73 98/291/73 100/292/73
f 102/293/74 101/294/74 103/295/74 104/296/74
f 98/297/75 97/298/75 101/299/75 102/300/75
f 103/301/76 99/302/76 100/303/76 104/304/76
f 101/305/77 97/306/77 99/307/77 103/308/77
f 100/309/78 98/310/78 102/311/78 104/312/78