# Made in Blockbench 4.10.2
mtllib sign_pole.mtl

o cuboid
v 1.25 1.3125 0.015625
v -1.25 1.3125 0.015625
v 1.25 -0.3125 0.015625
v -1.25 -0.3125 0.015625
v 1.25 1.3125 -0.015625
v -1.25 1.3125 -0.015625
v 1.25 -0.3125 -0.015625
v -1.25 -0.3125 -0.015625
vt 0.3125 0.796875
vt 0.3125 1
vt 0 1
vt 0 0.796875
vt 0.3125 0.7890625
vt 0 0.7890625
vt 0 0.5859375
vt 0.3125 0.5859375
vt 0.6328125 0.640625
vt 0.3203125 0.640625
vt 0.3203125 0.6328125
vt 0.6328125 0.6328125
vt 0.3671875 1
vt 0.3671875 0.9921875
vt 0.6796875 0.9921875
vt 0.6796875 1
vt 0.375 0.984375
vt 0.3671875 0.984375
vt 0.3671875 0.78125
vt 0.375 0.78125
vt 0.328125 0.421875
vt 0.328125 0.625
vt 0.3203125 0.625
vt 0.3203125 0.421875
vn 0 0 1
vn 0 0 -1
vn 0 1 0
vn 0 -1 0
vn 1 0 0
vn -1 0 0
usemtl m_71681ded-4b47-2495-6fe6-22249c5dffed
f 3/1/1 1/2/1 2/3/1 4/4/1
f 6/5/2 5/6/2 7/7/2 8/8/2
f 2/9/3 1/10/3 5/11/3 6/12/3
f 7/13/4 3/14/4 4/15/4 8/16/4
f 5/17/5 1/18/5 3/19/5 7/20/5
f 4/21/6 2/22/6 6/23/6 8/24/6
o cuboid
v 1.375 1.1875 0.015625
v 1.25 1.1875 0.015625
v 1.375 -0.1875 0.015625
v 1.25 -0.1875 0.015625
v 1.375 1.1875 -0.015625
v 1.25 1.1875 -0.015625
v 1.375 -0.1875 -0.015625
v 1.25 -0.1875 -0.015625
vt 0.3359375 0.828125
vt 0.3359375 1
vt 0.3203125 1
vt 0.3203125 0.828125
vt 0.3359375 0.8203125
vt 0.3203125 0.8203125
vt 0.3203125 0.6484375
vt 0.3359375 0.6484375
vt 0.40625 0.734375
vt 0.390625 0.734375
vt 0.390625 0.7265625
vt 0.40625 0.7265625
vt 0.390625 0.71875
vt 0.390625 0.7109375
vt 0.40625 0.7109375
vt 0.40625 0.71875
vt 0.34375 0.625
vt 0.3359375 0.625
vt 0.3359375 0.453125
vt 0.34375 0.453125
vt 0.359375 0.453125
vt 0.359375 0.625
vt 0.3515625 0.625
vt 0.3515625 0.453125
vn 0 0 1
vn 0 0 -1
vn 0 1 0
vn 0 -1 0
vn 1 0 0
vn -1 0 0
usemtl m_e9c905be-2a19-e929-dc4a-a29e77da7fc4
f 11/25/7 9/26/7 10/27/7 12/28/7
f 14/29/8 13/30/8 15/31/8 16/32/8
f 10/33/9 9/34/9 13/35/9 14/36/9
f 15/37/10 11/38/10 12/39/10 16/40/10
f 13/41/11 9/42/11 11/43/11 15/44/11
f 12/45/12 10/46/12 14/47/12 16/48/12
o cuboid
v -1.328125 1.265625 0.015625
v -1.25 1.3125 0.015625
v -1.375 1.1875 0.015625
v -1.25 1.1875 0.015625
v -1.328125 1.265625 -0.015625
v -1.25 1.3125 -0.015625
v -1.375 1.1875 -0.015625
v -1.25 1.1875 -0.015625
vt 0.3828125 0.6796875
vt 0.373046875 0.673828125
vt 0.3671875 0.6640625
vt 0.3828125 0.6640625
vt 0.3984375 0.7890625
vt 0.392578125 0.798828125
vt 0.3828125 0.8046875
vt 0.3828125 0.7890625
vt 0.3984375 0.59017421875
vt 0.40234375 0.59017421875
vt 0.40234375 0.6015625
vt 0.3984375 0.6015625
vt 0.390625 0.65625
vt 0.40625 0.65625
vt 0.40625 0.6640625
vt 0.390625 0.6640625
vt 0.40234375 0.5787859375
vt 0.40234375 0.59017421875
vt 0.3984375 0.59017421875
vt 0.3984375 0.5787859375
vt 0.40625 0.984375
vt 0.3984375 0.984375
vt 0.3984375 0.96875
vt 0.40625 0.96875
vn 0 0 1
vn 0 0 -1
vn -0.5144957554275266 0.8574929257125443 0
vn 0 -1 0
vn -0.8574929257125443 0.5144957554275266 0
vn 1 0 0
usemtl m_e9c905be-2a19-e929-dc4a-a29e77da7fc4
f 18/49/13 17/50/13 19/51/13 20/52/13
f 23/53/14 21/54/14 22/55/14 24/56/14
f 21/57/15 17/58/15 18/59/15 22/60/15
f 20/61/16 19/62/16 23/63/16 24/64/16
f 19/65/17 17/66/17 21/67/17 23/68/17
f 22/69/18 18/70/18 20/71/18 24/72/18
o cuboid
v -1.375 1.1875 0.015625
v -1.25 1.1875 0.015625
v -1.375 -0.1875 0.015625
v -1.25 -0.1875 0.015625
v -1.375 1.1875 -0.015625
v -1.25 1.1875 -0.015625
v -1.375 -0.1875 -0.015625
v -1.25 -0.1875 -0.015625
vt 0.359375 1
vt 0.34375 1
vt 0.34375 0.828125
vt 0.359375 0.828125
vt 0.359375 0.6484375
vt 0.359375 0.8203125
vt 0.34375 0.8203125
vt 0.34375 0.6484375
vt 0.4140625 0.953125
vt 0.4140625 0.9609375
vt 0.3984375 0.9609375
vt 0.3984375 0.953125
vt 0.3984375 0.9375
vt 0.4140625 0.9375
vt 0.4140625 0.9453125
vt 0.3984375 0.9453125
vt 0.375 0.453125
vt 0.375 0.625
vt 0.3671875 0.625
vt 0.3671875 0.453125
vt 0.390625 0.984375
vt 0.3828125 0.984375
vt 0.3828125 0.8125
vt 0.390625 0.8125
vn 0 0 1
vn 0 0 -1
vn 0 1 0
vn 0 -1 0
vn -1 0 0
vn 1 0 0
usemtl m_e9c905be-2a19-e929-dc4a-a29e77da7fc4
f 26/73/19 25/74/19 27/75/19 28/76/19
f 31/77/20 29/78/20 30/79/20 32/80/20
f 29/81/21 25/82/21 26/83/21 30/84/21
f 28/85/22 27/86/22 31/87/22 32/88/22
f 27/89/23 25/90/23 29/91/23 31/92/23
f 30/93/24 26/94/24 28/95/24 32/96/24
o cuboid
v -1.328125 -0.265625 0.015625
v -1.25 -0.3125 0.015625
v -1.375 -0.1875 0.015625
v -1.25 -0.1875 0.015625
v -1.328125 -0.265625 -0.015625
v -1.25 -0.3125 -0.015625
v -1.375 -0.1875 -0.015625
v -1.25 -0.1875 -0.015625
vt 0.3671875 0.6640625
vt 0.373046875 0.673828125
vt 0.3828125 0.6796875
vt 0.3828125 0.6640625
vt 0.3828125 0.8046875
vt 0.392578125 0.798828125
vt 0.3984375 0.7890625
vt 0.3828125 0.7890625
vt 0.40234375 0.6015625
vt 0.40234375 0.59017421875
vt 0.3984375 0.59017421875
vt 0.3984375 0.6015625
vt 0.40625 0.6640625
vt 0.40625 0.65625
vt 0.390625 0.65625
vt 0.390625 0.6640625
vt 0.3984375 0.59017421875
vt 0.40234375 0.59017421875
vt 0.40234375 0.5787859375
vt 0.3984375 0.5787859375
vt 0.3984375 0.96875
vt 0.3984375 0.984375
vt 0.40625 0.984375
vt 0.40625 0.96875
vn 0 0 1
vn 0 0 -1
vn -0.5144957554275266 -0.8574929257125443 0
vn 0 1 0
vn -0.8574929257125443 -0.5144957554275266 0
vn 1 0 0
usemtl m_e9c905be-2a19-e929-dc4a-a29e77da7fc4
f 35/97/25 33/98/25 34/99/25 36/100/25
f 38/101/26 37/102/26 39/103/26 40/104/26
f 34/105/27 33/106/27 37/107/27 38/108/27
f 39/109/28 35/110/28 36/111/28 40/112/28
f 37/113/29 33/114/29 35/115/29 39/116/29
f 36/117/30 34/118/30 38/119/30 40/120/30
o cuboid
v 1.328125 -0.265625 0.015625
v 1.25 -0.3125 0.015625
v 1.375 -0.1875 0.015625
v 1.25 -0.1875 0.015625
v 1.328125 -0.265625 -0.015625
v 1.25 -0.3125 -0.015625
v 1.375 -0.1875 -0.015625
v 1.25 -0.1875 -0.015625
vt 0.3828125 0.6796875
vt 0.373046875 0.673828125
vt 0.3671875 0.6640625
vt 0.3828125 0.6640625
vt 0.3984375 0.7890625
vt 0.392578125 0.798828125
vt 0.3828125 0.8046875
vt 0.3828125 0.7890625
vt 0.3984375 0.59017421875
vt 0.40234375 0.59017421875
vt 0.40234375 0.6015625
vt 0.3984375 0.6015625
vt 0.390625 0.65625
vt 0.40625 0.65625
vt 0.40625 0.6640625
vt 0.390625 0.6640625
vt 0.40234375 0.5787859375
vt 0.40234375 0.59017421875
vt 0.3984375 0.59017421875
vt 0.3984375 0.5787859375
vt 0.40625 0.984375
vt 0.3984375 0.984375
vt 0.3984375 0.96875
vt 0.40625 0.96875
vn 0 0 1
vn 0 0 -1
vn 0.5144957554275266 -0.8574929257125443 0
vn 0 1 0
vn 0.8574929257125443 -0.5144957554275266 0
vn -1 0 0
usemtl m_e9c905be-2a19-e929-dc4a-a29e77da7fc4
f 42/121/31 41/122/31 43/123/31 44/124/31
f 47/125/32 45/126/32 46/127/32 48/128/32
f 45/129/33 41/130/33 42/131/33 46/132/33
f 44/133/34 43/134/34 47/135/34 48/136/34
f 43/137/35 41/138/35 45/139/35 47/140/35
f 46/141/36 42/142/36 44/143/36 48/144/36
o cuboid
v 1.328125 1.265625 0.015625
v 1.25 1.3125 0.015625
v 1.375 1.1875 0.015625
v 1.25 1.1875 0.015625
v 1.328125 1.265625 -0.015625
v 1.25 1.3125 -0.015625
v 1.375 1.1875 -0.015625
v 1.25 1.1875 -0.015625
vt 0.3671875 0.6640625
vt 0.373046875 0.673828125
vt 0.3828125 0.6796875
vt 0.3828125 0.6640625
vt 0.3828125 0.8046875
vt 0.392578125 0.798828125
vt 0.3984375 0.7890625
vt 0.3828125 0.7890625
vt 0.40234375 0.6015625
vt 0.40234375 0.59017421875
vt 0.3984375 0.59017421875
vt 0.3984375 0.6015625
vt 0.40625 0.6640625
vt 0.40625 0.65625
vt 0.390625 0.65625
vt 0.390625 0.6640625
vt 0.3984375 0.59017421875
vt 0.40234375 0.59017421875
vt 0.40234375 0.5787859375
vt 0.3984375 0.5787859375
vt 0.3984375 0.96875
vt 0.3984375 0.984375
vt 0.40625 0.984375
vt 0.40625 0.96875
vn 0 0 1
vn 0 0 -1
vn 0.5144957554275266 0.8574929257125443 0
vn 0 -1 0
vn 0.8574929257125443 0.5144957554275266 0
vn -1 0 0
usemtl m_e9c905be-2a19-e929-dc4a-a29e77da7fc4
f 51/145/37 49/146/37 50/147/37 52/148/37
f 54/149/38 53/150/38 55/151/38 56/152/38
f 50/153/39 49/154/39 53/155/39 54/156/39
f 55/157/40 51/158/40 52/159/40 56/160/40
f 53/161/41 49/162/41 51/163/41 55/164/41
f 52/165/42 50/166/42 54/167/42 56/168/42